<svg version="1.1" id="Capa_1" xmlns="http://www.w3.org/2000/svg" x="0" y="0"
    viewBox="0 0 517.7 174.7" style="enable-background:new 0 0 517.7 174.7" xml:space="preserve"><style>.st0{fill:#193354}.st1{fill:#199ad7}</style><path class="st0" d="M517.7 27.3c-17.6 0-31.9 14.3-31.9 31.9H460c0-31.8 25.9-57.7 57.7-57.7v25.8zM485.8 117c0 17.6 14.3 31.9 31.9 31.9v25.8c-31.8 0-57.7-25.9-57.7-57.7h25.8z"/><path class="st1" d="M460 59.3h25.8V117H460zM415.6 59.2v115.4h25.8V59.2z"/><circle class="st0" cx="428.5" cy="14.6" r="14.6"/><path class="st0" d="M57.7 1.5C25.9 1.5 0 27.4 0 59.3h25.8c0-17.6 14.3-31.9 31.9-31.9s31.9 14.3 31.9 31.9h25.8c0-31.9-25.9-57.8-57.7-57.8zM57.7 148.9c-17.6 0-31.9-14.3-31.9-31.9s14.3-32 31.9-32V59.3C25.9 59.3 0 85.2 0 117s25.9 57.7 57.7 57.7 57.7-25.9 57.7-57.7H89.7c0 17.6-14.4 31.9-32 31.9zM190 1.5c-31.8 0-57.7 25.9-57.7 57.7h25.8c0-17.6 14.3-31.9 31.9-31.9s32 14.4 32 32h25.8c0-31.9-25.9-57.8-57.8-57.8zM190 148.9c-17.6 0-31.9-14.3-31.9-31.9h-25.8c0 31.8 25.9 57.7 57.7 57.7s57.7-25.9 57.7-57.7H222c0 17.6-14.3 31.9-32 31.9zM365 117h-25.8c0 31.8 25.9 57.7 57.7 57.7v-25.8c-17.5 0-31.9-14.3-31.9-31.9zM264.7 59.3h25.8c0-17.6 14.3-31.9 31.9-31.9V1.5c-31.8 0-57.7 25.9-57.7 57.8z"/><path class="st1" d="M57.7 59.3v25.8h31.9V117h25.8V59.3H89.6zM158.1 59.3h-25.8V117h25.8V85.1H247.8V59.3H190zM365.1 33.5v-32h-25.8V117h25.8V59.3H397V33.5zM264.7 117v57.7h25.8V59.3h-25.8z"/></svg>