<svg xmlns="http://www.w3.org/2000/svg" viewBox="0 0 170 41"
	style="enable-background:new 0 0 170 41" xml:space="preserve"><path d="M82.4 27.5c0-7.6 6-13.7 14.2-13.7s14.2 6.1 14.2 13.5v.1c0 7.5-6 13.6-14.3 13.6-8.2 0-14.1-6.1-14.1-13.5zm8.7-.2c0 .8.1 1.6.3 2.3.3.7.7 1.3 1.2 1.9.5.5 1.1 1 1.8 1.3.7.3 1.4.5 2.2.5 3.3 0 5.4-2.6 5.4-5.8v-.1c0-.8-.1-1.5-.3-2.2-.3-.7-.7-1.4-1.2-1.9s-1.1-1-1.8-1.3c-.7-.3-1.4-.5-2.2-.5-3.3 0-5.4 2.6-5.4 5.8zm-60.5.2c0-7.6 6-13.7 14.2-13.7S59 19.9 59 27.3v.1C59 34.8 53 41 44.8 41s-14.2-6.1-14.2-13.5zm8.8-.2c0 .8.1 1.6.3 2.3.3.7.7 1.3 1.2 1.9.5.5 1.1 1 1.8 1.3.7.3 1.4.5 2.2.5 3.3 0 5.4-2.6 5.4-5.8v-.1c0-.8-.1-1.5-.3-2.2s-.7-1.4-1.2-1.9c-.5-.6-1.1-1-1.8-1.3-.7-.3-1.4-.5-2.2-.5-3.3 0-5.4 2.6-5.4 5.8zm19.5 9.8 3.4-5.5c2.6 1.8 5.7 2.8 8.8 3 1.6 0 2.3-.5 2.3-1.4v-.1c0-1.1-1.5-1.5-4.2-2.3-5.1-1.3-9.1-3.1-9.1-8.3v-.1c0-5.5 4.4-8.6 10.3-8.6 3.7 0 7.4 1 10.6 3l-3.1 5.8c-2.3-1.4-4.9-2.3-7.6-2.5-1.4 0-2.1.5-2.1 1.3v.1c0 1 1.5 1.5 4.2 2.3 5.1 1.4 9.1 3.2 9.1 8.3v.1C81.5 38 77.3 41 71 41c-4.3 0-8.6-1.4-12.1-3.9zm96.1-4.8V21.7h-3v-7.3h3.1V7.7h9v6.6h6v7.3h-6v8.9c0 1.9.8 2.6 2.5 2.6 1.2 0 2.4-.3 3.4-.9v7.1c-1.9 1-4.1 1.6-6.3 1.5-5.6.1-8.7-2.3-8.7-8.5zm-13.8 8.1v-26h9v26h-9zm-12 0V26.3c0-2.9-1.4-4.4-3.7-4.4-2.2 0-3.8 1.5-3.8 4.4v14.1h-9v-26h9V18c1.7-2.2 4-4.2 7.7-4.2 5.5 0 8.8 3.6 8.8 9.6v17h-9zM0 40.4V6.7h17.1c4.2 0 7.1 1.1 9.1 3 .7.7 1.3 1.6 1.6 2.5.4.9.5 1.9.5 3v.1c0 3.9-2.1 6.2-5.1 7.5 4 1.3 6.6 3.7 6.6 8.2v.1c0 5.8-4.6 9.3-12.6 9.3H0zm9-7.5h7.1c2.9 0 4.4-1.1 4.4-3.1v-.1c0-1.9-1.4-3-4.5-3H9v6.2zm0-12.8h5.8c2.9 0 4.4-1 4.4-2.9v-.1c0-1.9-1.4-2.9-4.2-2.9H9v5.9zM140.1 5.5c0-1.1.3-2.2.9-3.1.6-.9 1.5-1.6 2.5-2 1-.4 2.1-.5 3.2-.3s2 .7 2.8 1.5c.8.8 1.3 1.8 1.5 2.8.2 1.1.1 2.2-.3 3.2s-1.1 1.9-2 2.5c-.9.6-2 .9-3 .9-1.5 0-2.8-.6-3.9-1.6s-1.7-2.4-1.7-3.9z" style="fill:#110841"/></svg>