<svg version="1.1" id="Layer_1" xmlns="http://www.w3.org/2000/svg" x="0" y="0" viewBox="0 0 768 768"
    style="enable-background:new 0 0 768 768" xml:space="preserve"><style>.st0{fill:#0c5fa8}.st1{fill:#fafcfc}.st2{fill:#f1f9f7}</style><path class="st0" d="M.09 725.31c0-240.67.01-481.33-.07-722C.02.61.63 0 3.34 0 257.12.07 510.9.07 764.68 0c2.71 0 3.32.61 3.32 3.32-.07 253.79-.07 507.58 0 761.36 0 2.71-.61 3.32-3.32 3.32-253.78-.07-507.56-.07-761.34 0-2.7 0-3.47-.59-3.32-3.32.25-4.92.07-9.87.07-14.81 1.25-.93 2.55-1.79 3.74-2.79 15.5-12.99 28.43-28.3 40.13-44.71 23.29-32.66 40.96-68.41 57.16-104.93 15.7-35.38 29.1-71.66 42.37-108 14.08-38.56 28.18-77.12 42.16-115.71.96-2.65 2.1-3.67 5.06-3.65 18.89.15 37.78.05 56.67.07 1.3 0 2.65-.23 3.89.44l-4.53 8.37-.02.06c-.55.72-1.08 1.45-1.11 2.42l.01-.02c-1.87 2.68-3 5.7-4.13 8.73-.18.18-.25.4-.19.65-1.66 2.44-2.23 5.33-3.27 8.03-.26 1.85-1.14 3.5-1.68 5.24-4.56 14.77-7.1 29.79-5 45.3 2.1 19.15 10.39 35.25 24.97 47.66 24.52 20.88 53.35 25.35 84.08 19.81 27.3-4.92 49.99-19.22 70.83-36.85 14.26-12.07 26.44-26.26 39.95-39.1 1.12-1.07 2.06-2.49 4.46-3.24-1.72 4.29-3.17 7.92-4.63 11.55-.07.22-.13.45-.2.67-3.32 6.39-6.04 13.05-8.66 19.75l-.01.02c-1.2 1.95-2.45 3.89-2.25 6.34-.21.12-.43.24-.64.36-2.54 5.47-5.08 10.95-7.62 16.42-.08.25-.17.5-.25.74-1.15 2.64-2.29 5.28-3.44 7.92-.09.24-.17.48-.26.72-1.18 2.21-2.25 4.5-3.59 6.61-1.16 1.83-.46 2.56 1.26 3.08 2.58.79 5.23.75 7.85.46 10.9-1.19 21.76-1.26 32.61.64 5.18.91 5.21.76 7.09-4.32 2.38-5.88 4.66-11.8 7.15-17.63 4.18-9.79 8.5-19.51 12.76-29.27 4.61-9.26 8.98-18.63 12.94-28.19 7.21-15.41 14.42-30.83 21.63-46.24.7-1.24 1.48-2.45 2.1-3.73 12.89-26.62 28.53-51.36 49.18-72.73 9.11-9.42 18.26-18.77 29.5-25.74 7.61-4.72 15.68-7.16 24.67-4.67 4.54 2.37 6.1 6.4 6.49 11.22.33 4.08-1.07 7.81-1.91 11.66-.99 4.5.54 7.3 4.84 8.64 1.94.61 3.99.91 6.05.58 11.76-1.86 18.77-9.18 22.12-20.08 2.99-9.74 2.05-18.98-5.73-26.56-2.61-3.34-6.2-5.23-10.1-6.5-14.15-4.6-26.89-.49-39.14 6.49l.01-.01c-8.35 3.92-15.46 9.64-22.4 15.56-15.42 13.14-28.61 28.35-40.79 44.49-.99 1.32-1.6 3.15-4.04 3.64.64-2.28 2.15-3.83 2.25-5.85.34-.63.74-1.23 1.01-1.89 7.06-17.09 14.12-34.18 21.14-51.29 1.41-3.44 2.97-6.86 3.63-10.55.67-3.74-1.42-5.84-5.14-5.16-1.64.3-3.25.87-4.83 1.42-4.67 1.62-9.42 2.79-14.35 3.27-14.98 1.47-30.03 1.36-45.04 2.13-2.99.15-5.98.56-8.94 1.01-1.53.24-2.63 1.17-2.63 2.93 0 1.6.66 2.88 2.17 3.41 1.23.44 2.56.62 3.87.77 5.78.66 11.52-.27 17.29-.36 2.44-.04 4.78.14 6.91 1.53 1.88 1.23 2.58 2.68 1.57 4.86-1.16 2.5-2.15 5.09-3.25 7.62-5.61 12.87-11.24 25.73-16.86 38.6-7.06 15.93-14.13 31.87-21.19 47.8-3.02 6.99-6.05 13.97-9.07 20.96-.61 1.15-1.25 2.28-1.81 3.45-3.4 7-5.32 14.82-11.22 20.44l.02-.02c-.71.28-1.18.78-1.4 1.51l-.01.02c-4.03 3.66-7.93 7.45-11.53 11.54l-.03.03c-1.5 1.37-3.05 2.68-4.5 4.1-12.23 12.08-24.53 24.08-37.69 35.15-15.6 13.12-31.92 25.18-51.12 32.56-19.14 7.35-38.25 9.16-56.81-2.05-.24-.16-.48-.31-.72-.47-5.94-5.07-10.46-11.12-13.13-18.55-3.51-9.77-4.13-19.88-3.99-30.13.18-12.42 2.28-24.54 5.44-36.51.56-.64.75-1.39.69-2.23 3.44-9.45 7.15-18.79 11.25-27.97 1.34-2.82 2.8-5.58 3.98-8.46.92-2.23 2.22-2.87 4.67-2.71 23.09 1.6 46.16 1.64 69.11-1.98 20.23-3.19 39.71-8.63 57.21-19.63 16.7-10.5 29.15-24.26 32.66-44.52 2.9-16.73-3.06-31.26-16.81-39.95-8.22-5.2-17.54-7.06-27.09-7.79-20.22-1.55-39.25 3.24-57.26 11.89-42.42 20.37-77.34 49.99-105.85 87.29-1.17 1.53-2.19 2.51-4.33 2.5-21.3-.09-42.61-.09-63.91 0-2.76.01-2.91-.79-2.08-3.13 7.23-20.24 14.32-40.52 21.52-60.77 6.85-19.25 14.39-38.22 23.58-56.49 2.32-3.77 4.54-7.61 6.99-11.29 7.13-10.67 15.62-19.78 28.34-23.83 7.79-2.48 15.77-2.72 23.84-2.04 4.28.74 8.48 1.72 12.14 4.22 6.14 4.2 7.74 10.98 3.9 17.35-1.61 2.67-3.47 5.21-5.43 7.64-3.4 4.22-3.34 8.65-.86 13.11 3.95 7.12 10.27 10.22 18.25 9.97 8.42-.26 14.79-4.07 18.41-11.74 5.35-11.34 1.83-26.33-8-35.25-10.22-9.28-22.67-12.93-36.03-13.67-31.12-1.72-58.15 8.47-81.28 29.1-18.98 16.92-32.26 38.09-43.65 60.49-11.93 23.46-21.92 47.81-31.92 72.15-1.3 3.17-2.78 4.34-6.21 4.2-13.47-.56-26.94-.86-40.42-.54-5.64.14-11.34.12-16.71 2.21-3.38 1.32-4.89 4.67-4.11 8.64.68 3.48 3.42 3.55 6.11 3.68.84.04 1.68-.02 2.52-.04 16.24-.33 32.48-.6 48.72-1.04 3.05-.08 3.4.75 2.38 3.44-2.21 5.84-4.11 11.8-6.19 17.69-24.38 69.18-48.56 138.44-73.22 207.52C38.35 641.39 26.04 684 3.53 722.45c-.71 1.25-1.09 3.35-3.44 2.86z"/><path class="st1" d="M299.97 497c.24.16.48.31.72.47.17 5.51 4.19 8.87 9.41 7.85.56-.11 1.24-.73 1.63-.11 1.99 3.19 5.08 1.78 7.79 1.99 1.11.09 2.37-.49 3.55.89-.69.2-1.23.53-1.72.46-6.16-.82-11.99 2.31-18.15 1.54-.74-.09-1.92-.21-1.89 1.02.02.83.97.95 1.69 1.02.6.06 1.21.11 1.8.06 9.24-.86 18.42.74 27.64.77 1.05 0 2.8-.62 2.87 1.18.06 1.56-1.5 1.71-2.71 1.65-4.88-.26-9.85.89-14.62-1.12-1.43-.6-3.27-.72-4.6-.02-3.21 1.68-6.6 1.33-9.89 1.11-4.57-.31-9.11-1.14-14.09-1.8 1.68-1.68 3.7-.21 4.74-1.87-1.66-2.16-3.17-4.45-6.39-2.28-.42.28-1.42-.08-2.05-.37-1.84-.83-3.69-1.05-5.61-.36-1.85.68-2.56.14-2.69-1.9-.26-3.9-1.28-4.61-5.24-4.26-1.19.11-2.39.08-3.57.23-1.96.25-3.03-.37-2.85-2.53.14-1.61-.8-2-2.25-2.04-4.81-.13-8.69-4.25-8.6-9.02.06-3.34-1.14-4.34-4.39-3.65-2.35.5-3.46-.71-2.66-3.18.53-1.65.9-3.25.52-4.94-.19-.84-.62-1.73-1.57-1.77-1.25-.05-.98 1.08-1.12 1.86-.16.88.14 2.18-1.39 1.95-1.14-.17-1.37-1.2-1.47-2.21-.63-6.64-3.78-13.05-1.55-19.96.46-1.41.08-3.11.01-4.67-.04-.85-.22-1.77-1.32-1.82-1.12-.05-1.38.83-1.42 1.71-.07 1.56.1 3.15-.12 4.68-.22 1.57 1.04 4.37-1.57 4.3-2.11-.06-1.28-2.78-1.21-4.28.17-3.65.17-7.03-4.26-8.21-2.1-15.51.44-30.53 5-45.3.54-1.74 1.42-3.39 1.68-5.24 4.05-1.47 3.38-4.86 3.27-8.03-.05-.25.01-.47.19-.65h1.28c.16.73-.3 1.67.69 2.1.1.04.43-.18.48-.33.32-1.03-.35-1.46-1.16-1.78.8-2.95 3.66-5.24 2.84-8.72l-.01.02c1.31-.37 1.48-1.27 1.11-2.42l.02-.06c5.14-.58 3.9-6.12 7-8.67-1.05.13-1.76.22-2.47.3-1.24-.67-2.59-.44-3.89-.44-18.89-.01-37.78.08-56.67-.07-2.96-.02-4.1 1-5.06 3.65-13.99 38.6-28.08 77.15-42.16 115.71-13.27 36.33-26.68 72.62-42.37 108-16.2 36.52-33.87 72.27-57.16 104.93-11.7 16.4-24.63 31.71-40.13 44.71-1.19 1-2.49 1.86-3.74 2.79v-24.56c2.36.48 2.73-1.62 3.49-2.91 22.51-38.45 34.81-81.06 49.65-122.61 24.66-69.08 48.84-138.34 73.22-207.52 2.08-5.89 3.97-11.85 6.19-17.69 1.02-2.69.67-3.52-2.38-3.44-16.24.44-32.48.71-48.72 1.04-.84.02-1.69.08-2.52.04-2.69-.13-5.43-.2-6.11-3.68-.78-3.96.73-7.32 4.11-8.64 5.37-2.09 11.07-2.07 16.71-2.21 13.48-.32 26.96-.02 40.42.54 3.43.14 4.91-1.03 6.21-4.2 9.99-24.33 19.98-48.69 31.92-72.15 11.39-22.39 24.67-43.56 43.65-60.49 23.13-20.63 50.16-30.82 81.28-29.1 13.36.74 25.8 4.39 36.03 13.67 9.82 8.92 13.35 23.91 8 35.25-3.62 7.68-9.99 11.49-18.41 11.74-7.98.24-14.31-2.86-18.25-9.97-2.47-4.46-2.54-8.89.86-13.11 1.96-2.43 3.82-4.97 5.43-7.64 3.84-6.36 2.24-13.15-3.9-17.35-3.67-2.51-7.86-3.49-12.14-4.22-.33-.33-.67-.95-1-.95-7.25.02-14.49-1.27-21.73.87-7.08 2.09-13.16 5.87-18.79 10.34-3.52 2.8-6.45 6.39-9.04 10.16-.17-.28-.34-.55-.5-.83l-.35.35c.28.17.55.34.83.5-2.49 2.54-3.42 6.18-6.63 8.33-2.83 1.89-5.53 4.62-1.96 8.38-9.19 18.28-16.74 37.24-23.58 56.49-7.2 20.25-14.29 40.53-21.52 60.77-.84 2.34-.68 3.14 2.08 3.13 21.3-.09 42.61-.09 63.91 0 2.15.01 3.16-.97 4.33-2.5 28.51-37.3 63.43-66.92 105.85-87.29 18.01-8.65 37.04-13.43 57.26-11.89 9.56.73 18.88 2.6 27.09 7.79 13.75 8.69 19.71 23.22 16.81 39.95-3.51 20.26-15.96 34.02-32.66 44.52-17.5 11.01-36.99 16.44-57.21 19.63-22.95 3.62-46.01 3.58-69.11 1.98-2.45-.17-3.75.47-4.67 2.71-1.18 2.88-2.64 5.65-3.98 8.46-3.01-.03-6.02-.08-9.02-.08-.73 0-1.52.15-1.81.92-.13.36.15 1.24.23 1.24 4.1-.06 2.95 2.45 2.42 4.74-.08.36.28.89.55 1.26 1.15 1.55.84 5.48-.7 5.72-4.23.68-2.69 3.08-1.95 5.35.46 1.42.88 2.77-.8 3.78-2.57 1.55-1.72 3.3-.17 5.03.07.83-.13 1.59-.69 2.23-.49-.34-.99-.68-1.48-1.03-.81-.59-1.21-2.07-2.58-1.46-1.22.54-1.04 1.83-.97 2.87.17 2.84.04 5.66.56 8.55.51 2.87-.6 6.03-1.05 9.43-1.6-1.59-.26-3.57-1.91-4.71-1.99 3.54-3.55 6.82.37 10 .78.63.79 1.9.38 2.73-2.2 4.5-.61 8.94-.01 13.41.19 1.42.73 3.5-.53 4.05-3.31 1.46-1.94 4.06-2.19 6.35-.58 5.22.61 10.19 3.48 14.35 1.49 2.16 2.09 3.74 1.32 6.09-.67 2.04.41 3.02 2.34 3.01 2.44-.02 2.92 1.28 3.06 3.42.17 2.73.6 5.6 4.66 4.56.24-.06.83.27.82.4-.36 4.72 3.1 2.97 5.36 3.23zm24.32-136.26c9.67.08 19.23-.79 28.63-3.01 15.2-3.58 29.2-9.39 41.32-19.85 5.18-4.47 10.44-8.76 14.73-14.05 7.74-9.56 14.9-19.46 17.07-32.06 2.69-15.63-6.12-25.4-21.67-23.59-11.43 1.33-22.03 5.22-31.15 12.23-27.04 20.77-45.85 48.25-62.54 77.42-1.04 1.81-.4 2.3 1.38 2.36 4.07.17 8.15.37 12.23.55zm-45.93 88.38c.38-2.92 1.04-5.85-.4-8.61-.37 2.91-.91 5.82.4 8.61zm-.28-35.65c-.41 2.05-1.16 4.15.34 6.77.64-2.72.69-4.75-.34-6.77zm-23.81 62.23c-.07-.4-.07-.97-.64-.97-.57 0-.62.57-.63 1.02 0 .45.06 1.01.63 1.01.57-.01.59-.57.64-1.06zm27.39-58.06c-.1-.2-.25-.49-.4-.78-.24.19-.65.34-.69.57-.05.28.12.76.34.88.4.2.62-.16.75-.67zm-2.79 55.09c-.21-.41-.37-.7-.52-.99-.24.19-.64.35-.68.58-.05.27.21.6.33.91.27-.16.53-.31.87-.5zm23.39 35.86c.2-.34.36-.6.52-.86-.3-.13-.62-.39-.9-.35-.23.04-.4.43-.59.67.28.16.57.31.97.54zm-42.74-16.09c-.09.01-.19.01-.28.02l.15.42c.07-.06.19-.1.21-.17.03-.08-.04-.18-.08-.27zm33.04 3.59-.18.21c.14.06.27.13.41.19.01-.09.06-.21.03-.27-.04-.07-.17-.09-.26-.13zm9 8.93c-.04-.09-.07-.22-.14-.25s-.18.04-.27.06c.08.13.15.26.23.4l.18-.21zM527.4 387.26c-7.21 15.41-14.42 30.83-21.63 46.24-1.43 2.57-6.12 2.91-4.88 7.41.23.85-.57 2.72-1.78 2.79-2.16.14-1.94 1.78-1.92 2.81.1 3.5-1.6 6.31-3.44 8.9-1.49 2.1-1.61 4.04-.93 6.28-4.26 9.75-8.58 19.48-12.76 29.27-2.49 5.83-4.78 11.75-7.15 17.63-3.21 1.81-6.57 3.73-10.31 2.43-3.08-1.07-6.12-.94-9.21-.96-6.59-.04-13.18-.02-19.76 0-2.11.01-4.92.98-6.16-.03-1.61-1.3.34-3.99.24-6.12-.03-.6 0-1.2 0-1.8.09-.24.17-.48.26-.72 4.27-1.32 4.92-2.83 3.44-7.92.08-.25.17-.5.25-.74 4.05-1.47 5.06-5.73 7.04-8.75.84-1.29 1.14-5.02.58-7.67.21-.12.43-.24.64-.36 3.02-.58 3.83-2.86 2.25-6.34l.01-.02c5.64-5.38 9.24-11.64 8.66-19.75.07-.22.13-.45.2-.67 3.23 0 2.1-3.28 3.51-4.68 1.35-1.34 1.14-3.77 3.9-4.45.85-.21-2.52-2.91-2.39-5.18.03-.47-.16-.95-.15-1.42.04-1.89-.79-2.9-2.76-2.88-1.94.02-2.34-1.28-2.34-2.87l.03-.03c7.22.05 11.59-4.32 11.53-11.55l.01-.02c.83-.16 1.3-.66 1.4-1.51l-.02.02c2.08.96 4.71 3.15 3.96-1.9-.14-.97.78-1.67 1.27-2.49 1.94-3.26 5.65-5.62 5.13-10.17-.12-1.07.93-1.39 1.84-1.86 1.93-.99 2.57-2.64 1.67-4.76-.36-.87-.55-1.8-.82-2.71 3.02-6.99 6.05-13.97 9.07-20.96 2.13.02 4.27.06 6.4.04.73-.01 1.44-.28 1.61-1.11.06-.28-.18-.9-.27-.89-3.92.13-1.42-1.94-1.13-3.25.22-1.01-.31-1.56-1.19-1.88l-.01-.01c.03-2.73 2.02-4.81 2.48-7.42.11-.64.54-2.13 1.96-.85.98.89 1.33-.17 1.25-.8-.8-6.95 3.96-12.15 5.7-18.3.67-2.35 1.64-4.64 3.33-6.42 2.03-2.14 2.27-4.37 1.05-6.91 5.62-12.87 11.25-25.73 16.86-38.6 1.1-2.53 2.09-5.11 3.25-7.62 1.01-2.18.31-3.64-1.57-4.86-2.13-1.39-4.47-1.57-6.91-1.53-5.76.09-11.51 1.02-17.29.36-1.3-.15-2.64-.34-3.87-.77-1.51-.53-2.17-1.81-2.17-3.41 0-1.77 1.11-2.7 2.63-2.93 2.96-.46 5.95-.86 8.94-1.01 15.01-.77 30.06-.65 45.04-2.13 4.93-.48 9.68-1.65 14.35-3.27 1.59-.55 3.19-1.12 4.83-1.42 3.73-.68 5.81 1.42 5.14 5.16-.66 3.69-2.21 7.11-3.63 10.55-7.03 17.1-14.08 34.2-21.14 51.29-.27.66-.67 1.26-1.01 1.89-1.31 1-3.39.01-4.21.88-1.18 1.26-.08 3.13.35 4.72.85 3.17 1.32 6.4 2.32 9.57 1.3 4.14.16 8.01-3.26 10.99-1.05.92-1.16 2.32-1.62 3.54-.75 2.01-1.55 3.98-3.42 5.36-.83.61-1.78 1.62-1.87 2.52-.17 1.74-.15 2.82-2.35 1.72-.89-.45-1.9.38-1.33 1.33 2.26 3.79-.47 4.52-3.09 5.42-1.43.49-2.14 1.58-.86 2.65 1.91 1.61.51 2.52-.3 3.81-2.12 3.4-4.07 6.87-3.47 11.1z"/><path class="st2" d="M450.8 427.71c.01 1.59.4 2.89 2.34 2.87 1.97-.02 2.8.99 2.76 2.88-.01.47.18.95.15 1.42-.13 2.27 3.23 4.98 2.39 5.18-2.76.68-2.54 3.11-3.9 4.45-1.41 1.4-.29 4.68-3.51 4.68 1.45-3.63 2.91-7.25 4.63-11.55-2.39.75-3.33 2.17-4.46 3.24-13.51 12.84-25.68 27.03-39.95 39.1-20.84 17.63-43.53 31.93-70.83 36.85-30.73 5.54-59.56 1.08-84.08-19.81-14.58-12.41-22.87-28.51-24.97-47.66 4.43 1.19 4.43 4.56 4.26 8.21-.07 1.5-.89 4.22 1.21 4.28 2.61.07 1.35-2.73 1.57-4.3.22-1.54.04-3.12.12-4.68.04-.88.31-1.76 1.42-1.71 1.1.05 1.29.97 1.32 1.82.07 1.56.44 3.26-.01 4.67-2.23 6.91.92 13.32 1.55 19.96.1 1.01.33 2.03 1.47 2.21 1.53.23 1.23-1.08 1.39-1.95.14-.77-.13-1.91 1.12-1.86.95.04 1.38.92 1.57 1.77.38 1.69.01 3.29-.52 4.94-.8 2.47.31 3.68 2.66 3.18 3.24-.69 4.45.31 4.39 3.65-.09 4.76 3.8 8.88 8.6 9.02 1.44.04 2.38.43 2.25 2.04-.18 2.16.89 2.78 2.85 2.53 1.18-.15 2.39-.12 3.57-.23 3.96-.35 4.98.35 5.24 4.26.13 2.04.84 2.57 2.69 1.9 1.91-.7 3.76-.48 5.61.36.63.29 1.63.65 2.05.37 3.22-2.17 4.73.12 6.39 2.28-1.03 1.67-3.05.19-4.74 1.87 4.98.66 9.52 1.49 14.09 1.8 3.29.22 6.68.58 9.89-1.11 1.33-.7 3.17-.58 4.6.02 4.78 2.01 9.75.87 14.62 1.12 1.21.06 2.77-.09 2.71-1.65-.07-1.8-1.82-1.17-2.87-1.18-9.22-.03-18.4-1.63-27.64-.77-.59.06-1.2.01-1.8-.06-.72-.07-1.67-.2-1.69-1.02-.04-1.23 1.15-1.12 1.89-1.02 6.16.77 11.98-2.36 18.15-1.54.49.06 1.03-.27 1.72-.46-1.18-1.38-2.44-.8-3.55-.89-2.71-.21-5.8 1.2-7.79-1.99-.39-.62-1.07 0-1.63.11-5.23 1.02-9.24-2.34-9.41-7.85 18.55 11.22 37.66 9.41 56.81 2.05 19.2-7.38 35.53-19.44 51.12-32.56 13.16-11.08 25.46-23.08 37.69-35.15 1.44-1.41 2.99-2.73 4.49-4.09z"/><path class="st1" d="M664.71 265.86c7.78 7.58 8.72 16.82 5.73 26.56-3.34 10.9-10.36 18.22-22.12 20.08-2.06.33-4.11.02-6.05-.58-4.3-1.34-5.82-4.14-4.84-8.64.85-3.85 2.24-7.59 1.91-11.66-.39-4.82-1.95-8.85-6.49-11.22-.86-2.48-2.63-3.16-5.11-2.79-2.79.42-5.66 1.15-8.4.87-4.1-.41-7.78 1.36-11.69 1.78-2.35.26-5.44 2.77-6.02 5.48-.53 2.49-1.53 3.04-3.57 3.54-1.8.45-5.21.91-4.99 2.01.65 3.27-1.91 3.24-3.27 4.54-2.42 2.3-4.63 4.85-8.64 5.17.88.81 1.8 1.28 1.78 1.71-.04 1.07-1.18 1.05-1.95 1.1-1.16.07-2.12-.06-3.28.81-1.5 1.14-1.9-.83-2.32-1.75-.42-.91-.43-2.01 1.25-1.62 1.06.24 1.62-.54 1.8-1.36.36-1.66 1.53-2.29 2.95-2.8 1.69-.6 2.75-1.77 3.15-3.61.38-1.73 1.73-2.98 3.05-3.86 1.27-.85 3.19-.82 2.77-3.11 1.61.06 2.19-3.29 4.48-1.23 1.52 1.37 1.95-.31 1.99-1.23.11-2.86 1.67-3.81 4.25-3.71.16.28.33.56.49.83l.35-.35c-.28-.16-.56-.33-.84-.49.28-1.52 2.33-1.26 2.69-2.64 1.44-5.46 6.06-7.35 10.61-8.71 2.73-.82 1.65-1.79 1.11-3.15l-.01.01c2.36.58 4.97-1.32 7.23.81.67.63 1.29-.04 1.54-.83 1.07-3.29 3.28-4.37 6.55-3.34 2.1.66 4.29 1.38 5.11-1.81.31-1.22 1.48-1.65 2.53-1.73 5.58-.4 11.01-.17 16.23 2.47 3.25 1.65 5.67 5.34 10.04 4.45zm-74.6 26.96c.56-.11.71-.52.67-1.01-.04-.49-.31-.87-.85-.8-.51.07-.76.48-.7.99.06.5.36.8.88.82zm-3.89.72c0-.34-.13-.4-.38-.16-.03.03.05.19.09.28.1-.03.2-.07.29-.12z"/><path class="st2" d="M615.48 265.85c.54 1.35 1.62 2.32-1.11 3.15-4.55 1.37-9.17 3.26-10.61 8.71-.36 1.37-2.41 1.12-2.69 2.64-2.58-.1-4.14.85-4.25 3.71-.04.92-.47 2.6-1.99 1.23-2.29-2.06-2.87 1.29-4.48 1.23.43 2.29-1.49 2.26-2.77 3.11-1.32.88-2.67 2.13-3.05 3.86-.4 1.84-1.46 3.01-3.15 3.61-1.42.51-2.59 1.14-2.95 2.8-.18.83-.74 1.6-1.8 1.36-1.68-.38-1.67.71-1.25 1.62.42.92.83 2.89 2.32 1.75 1.15-.88 2.12-.74 3.28-.81.77-.04 1.91-.03 1.95-1.1.02-.43-.9-.9-1.78-1.71 4.01-.32 6.21-2.87 8.64-5.17 1.37-1.3 3.93-1.27 3.27-4.54-.22-1.1 3.18-1.56 4.99-2.01 2.04-.51 3.04-1.06 3.57-3.54.58-2.71 3.68-5.22 6.02-5.48 3.92-.43 7.59-2.2 11.69-1.78 2.75.28 5.61-.45 8.4-.87 2.48-.37 4.25.31 5.11 2.79-8.99-2.49-17.06-.05-24.67 4.67-11.23 6.97-20.39 16.31-29.5 25.74-20.65 21.37-36.3 46.11-49.18 72.73-.62 1.28-1.4 2.49-2.1 3.73-.6-4.24 1.35-7.7 3.47-11.07.81-1.29 2.21-2.2.3-3.81-1.28-1.08-.57-2.16.86-2.65 2.62-.9 5.36-1.63 3.09-5.42-.57-.95.43-1.78 1.33-1.33 2.2 1.1 2.19.01 2.35-1.72.09-.9 1.04-1.91 1.87-2.52 1.87-1.37 2.67-3.34 3.42-5.36.46-1.23.56-2.62 1.62-3.54 3.42-2.98 4.56-6.84 3.26-10.99-.99-3.16-1.46-6.4-2.32-9.57-.43-1.58-1.52-3.46-.35-4.72.82-.87 2.9.12 4.21-.88-.1 2.02-1.61 3.57-2.25 5.85 2.44-.49 3.04-2.33 4.04-3.64 12.17-16.14 25.36-31.35 40.79-44.49 6.94-5.93 14.06-11.66 22.4-15.57zM299.97 497c-2.26-.26-5.72 1.48-5.4-3.19.01-.12-.58-.46-.82-.4-4.06 1.04-4.49-1.84-4.66-4.56-.14-2.14-.62-3.43-3.06-3.42-1.92.01-3.01-.97-2.34-3.01.77-2.35.17-3.93-1.32-6.09-2.87-4.16-4.06-9.12-3.48-14.35.25-2.28-1.12-4.89 2.19-6.35 1.26-.56.72-2.63.53-4.05-.6-4.47-2.19-8.91.01-13.41.41-.83.39-2.1-.38-2.73-3.93-3.18-2.36-6.46-.37-10 1.65 1.14.31 3.13 1.91 4.71.45-3.4 1.57-6.56 1.05-9.43-.52-2.89-.38-5.71-.56-8.55-.06-1.04-.25-2.33.97-2.87 1.37-.61 1.76.88 2.58 1.46.49.35.98.69 1.48 1.03-3.16 11.97-5.27 24.09-5.44 36.51-.15 10.25.48 20.36 3.99 30.13 2.66 7.45 7.18 13.5 13.12 18.57zM235.63 237.84c-3.57-3.76-.87-6.49 1.96-8.38 3.22-2.16 4.15-5.8 6.63-8.33l.03-.03c2.58-3.77 5.51-7.36 9.04-10.16 5.63-4.47 11.71-8.25 18.79-10.34 7.24-2.14 14.48-.84 21.73-.87.33 0 .67.62 1 .95-8.06-.68-16.04-.44-23.84 2.04-12.72 4.05-21.21 13.16-28.34 23.83-2.46 3.68-4.67 7.52-7 11.29zM491.28 362.69c.88.32 1.41.87 1.19 1.88-.29 1.31-2.79 3.38 1.13 3.25.09 0 .33.61.27.89-.17.83-.88 1.1-1.61 1.11-2.13.02-4.27-.02-6.4-.04 7.06-15.93 14.13-31.87 21.19-47.8 1.22 2.54.99 4.76-1.05 6.91-1.68 1.78-2.66 4.07-3.33 6.42-1.74 6.15-6.5 11.35-5.7 18.3.07.64-.27 1.69-1.25.8-1.42-1.29-1.85.21-1.96.85-.47 2.62-2.45 4.7-2.48 7.43-.28.16-.56.32-.84.49l.35.35c.16-.28.33-.56.49-.84zM288.99 409.57c-1.56-1.73-2.4-3.48.17-5.03 1.68-1.02 1.26-2.36.8-3.78-.74-2.27-2.28-4.68 1.95-5.35 1.55-.25 1.85-4.17.7-5.72-.27-.37-.63-.9-.55-1.26.53-2.29 1.68-4.8-2.42-4.74-.08 0-.36-.89-.23-1.24.28-.77 1.07-.92 1.81-.92 3.01.01 6.02.05 9.02.08-4.1 9.18-7.81 18.52-11.25 27.96zM664.71 265.86c-4.37.88-6.79-2.81-10.04-4.45-5.22-2.63-10.65-2.86-16.23-2.47-1.05.07-2.21.51-2.53 1.73-.82 3.2-3.02 2.47-5.11 1.81-3.27-1.03-5.48.05-6.55 3.34-.26.79-.88 1.46-1.54.83-2.26-2.13-4.86-.23-7.23-.81 12.25-6.97 24.99-11.08 39.14-6.49 3.89 1.29 7.47 3.18 10.09 6.51zM427.71 502.12c0 .6-.03 1.2 0 1.8.1 2.13-1.85 4.82-.24 6.12 1.25 1.01 4.05.04 6.16.03 6.59-.03 13.18-.05 19.76 0 3.09.02 6.13-.11 9.21.96 3.75 1.31 7.1-.62 10.31-2.43-1.88 5.09-1.9 5.23-7.09 4.32-10.85-1.9-21.7-1.83-32.61-.64-2.61.28-5.26.32-7.85-.46-1.72-.52-2.42-1.26-1.26-3.08 1.36-2.12 2.43-4.41 3.61-6.62zM492.83 461.7c-.68-2.24-.56-4.17.93-6.28 1.84-2.6 3.54-5.4 3.44-8.9-.03-1.03-.24-2.67 1.92-2.81 1.21-.08 2.01-1.94 1.78-2.79-1.24-4.5 3.45-4.84 4.88-7.41-3.97 9.55-8.34 18.93-12.95 28.19zM476.78 390.74c.27.91.46 1.84.82 2.71.89 2.13.25 3.77-1.67 4.76-.9.46-1.96.79-1.84 1.86.52 4.55-3.19 6.91-5.13 10.17-.48.81-1.41 1.52-1.27 2.49.75 5.06-1.88 2.86-3.96 1.9 5.9-5.63 7.82-13.44 11.22-20.44.59-1.17 1.23-2.3 1.83-3.45zM462.36 416.13c.06 7.23-4.31 11.6-11.53 11.55 3.6-4.09 7.5-7.89 11.53-11.55zM450.83 449.86c.58 8.1-3.02 14.37-8.66 19.75 2.62-6.71 5.35-13.36 8.66-19.75zM439.28 476.31c.56 2.65.26 6.38-.58 7.67-1.98 3.03-2.99 7.29-7.04 8.75 2.54-5.47 5.08-10.94 7.62-16.42zM251.28 370.59c.71-.09 1.42-.17 2.47-.3-3.1 2.55-1.86 8.09-7 8.67l4.53-8.37zM431.41 493.48c1.49 5.09.83 6.59-3.44 7.92 1.15-2.64 2.29-5.28 3.44-7.92zM442.17 469.62c1.59 3.47.78 5.76-2.25 6.34-.2-2.45 1.05-4.39 2.25-6.34zM241.32 390.8c.11 3.17.78 6.56-3.27 8.03 1.03-2.7 1.61-5.59 3.27-8.03zM242.79 390.15h-1.28c1.13-3.03 2.26-6.05 4.13-8.73.82 3.48-2.03 5.77-2.84 8.72l-.01.01z"/><path class="st2" d="M246.74 379.02c.37 1.14.2 2.04-1.11 2.42.02-.97.56-1.7 1.11-2.42zM463.77 414.61c-.1.84-.57 1.34-1.4 1.51.22-.73.69-1.23 1.4-1.51z"/><path class="st0" d="M324.29 360.74c-4.08-.18-8.16-.38-12.24-.53-1.78-.07-2.41-.55-1.38-2.36 16.69-29.17 35.5-56.65 62.54-77.42 9.13-7.01 19.72-10.9 31.15-12.23 15.55-1.81 24.37 7.95 21.67 23.59-2.17 12.6-9.33 22.5-17.07 32.06-4.29 5.29-9.55 9.58-14.73 14.05-12.12 10.45-26.11 16.27-41.32 19.85-9.39 2.2-18.95 3.08-28.62 2.99z"/><path class="st2" d="M278.36 449.12c-1.31-2.79-.76-5.7-.4-8.61 1.43 2.76.78 5.69.4 8.61zM278.08 413.47c1.03 2.02.98 4.05.34 6.77-1.51-2.62-.75-4.72-.34-6.77zM254.27 475.7c-.05.49-.07 1.06-.64 1.06-.57 0-.63-.57-.63-1.01 0-.45.06-1.01.63-1.02.57-.01.58.57.64.97zM281.66 417.64c-.13.51-.35.87-.74.66-.22-.12-.39-.6-.34-.88.04-.22.44-.38.69-.57.14.3.29.59.39.79zM242.8 390.13c.81.32 1.48.75 1.16 1.78-.05.15-.38.38-.48.33-1-.43-.54-1.37-.69-2.1 0 .01.01-.01.01-.01zM278.87 472.73c-.34.19-.6.34-.86.49-.12-.3-.38-.63-.33-.91.04-.22.44-.39.68-.58.15.3.3.59.51 1zM302.26 508.59c-.4-.22-.69-.38-.97-.54.19-.24.36-.63.59-.67.27-.04.6.22.9.35-.16.26-.31.52-.52.86zM244.22 221.12c-.28-.17-.55-.34-.83-.5l.35-.35c.17.28.34.55.5.83l-.02.02zM259.52 492.5c.03.09.11.19.09.27-.02.07-.14.11-.21.17l-.15-.42c.09-.01.18-.02.27-.02zM292.56 496.09c.09.04.21.06.25.13.04.06-.01.18-.03.27-.14-.06-.27-.13-.41-.19.07-.07.13-.14.19-.21zM301.56 505.02l-.18.21c-.08-.13-.15-.26-.23-.4.09-.02.21-.09.27-.06.07.03.1.16.14.25zM590.11 292.82c-.52-.03-.82-.33-.88-.82-.06-.51.19-.91.7-.99.54-.08.81.31.85.8.05.49-.11.9-.67 1.01zM601.07 280.34c.28.16.56.33.84.49l-.35.35c-.16-.28-.32-.56-.49-.84zM586.22 293.54c-.1.04-.2.08-.29.13-.03-.1-.12-.25-.09-.28.25-.25.39-.18.38.15z"/><path class="st1" d="M491.28 362.69c-.16.28-.33.56-.49.84l-.35-.35c.28-.16.56-.33.84-.49-.01 0 0 0 0 0z"/></svg>