<svg id="logo_globant_create" xmlns="http://www.w3.org/2000/svg" width="540" height="60"
    viewBox="0 0 540 60">
    <path id="Path_55053" data-name="Path 55053"
        d="M301.426,49.685c-11.577,0-19.631-8.021-19.631-19.01s8.119-19.01,19.492-19.01c10.735,0,17.937,7.948,17.937,19.01a14.275,14.275,0,0,1-.286,3.042H292.032c1.062,4.7,4.383,7.4,9.458,7.4,4.1,0,6.777-1.24,9.181-4.218l5.723,5.875C312.65,47.539,307.638,49.685,301.426,49.685ZM292.032,27.56h17.512c-.7-4.49-3.884-7.468-8.469-7.468A8.917,8.917,0,0,0,292.032,27.56Z"
        transform="translate(102.471 4.241)" fill="#000" />
    <path id="Path_55054" data-name="Path 55054"
        d="M329.183,11.664c5.576,0,9.885,2.354,11.789,5.667h.288a22.364,22.364,0,0,1-.139-3.177V12.769h9.042V48.58H341.12V46.924c0-1.593.074-2.562.139-3.322h-.288c-2.116,3.73-6.638,6.083-12.214,6.083-10.448,0-17.8-7.812-17.8-19.01s7.767-19.01,18.216-19.01Zm11.576,18.874c0-6.156-4.17-10.438-9.957-10.438s-9.885,4.282-9.885,10.438,4.17,10.573,9.885,10.573S340.759,36.758,340.759,30.538Z"
        transform="translate(113.076 4.241)" fill="#000" />
    <path id="Path_55055" data-name="Path 55055"
        d="M379.606,49.685c-11.577,0-19.63-8.021-19.63-19.01s8.118-19.01,19.49-19.01c10.735,0,17.937,7.948,17.937,19.01a14.275,14.275,0,0,1-.286,3.042H370.211c1.062,4.7,4.383,7.4,9.458,7.4,4.1,0,6.777-1.24,9.182-4.218l5.724,5.875C390.83,47.539,385.818,49.685,379.606,49.685ZM370.211,27.56h17.512c-.7-4.49-3.884-7.468-8.469-7.468A8.917,8.917,0,0,0,370.211,27.56Z"
        transform="translate(130.9 4.241)" fill="#000" />
    <path id="Path_55056" data-name="Path 55056" d="M276.817,18.719h-9.885v27.3h9.885V18.7"
        transform="translate(97.066 6.8)" fill="#000" />
    <path id="Path_55057" data-name="Path 55057" d="M284.066,11.617h-9.885v9.677h9.885Z"
        transform="translate(99.702 4.224)" fill="#000" />
    <path id="Path_55058" data-name="Path 55058" d="M361.669,31.645h-9.884v9.677h9.884Z"
        transform="translate(127.922 11.507)" fill="#000" />
    <path id="Path_55059" data-name="Path 55059"
        d="M270.6,16.363a17.566,17.566,0,0,0-14.757-7.532c-9.949,0-16.8,7.459-16.8,18.177s6.851,18.241,16.8,18.241a17.625,17.625,0,0,0,14.684-7.532l6.638,5.8c-4.586,6.635-11.928,10.573-21.312,10.573-16.3,0-27.037-11.261-27.037-27.022S240.108.06,255.845.06c9.385,0,17.013,4.074,21.6,10.709l-6.852,5.594Z"
        transform="translate(83.207 0.022)" fill="#000" />
    <path id="Path_55060" data-name="Path 55060"
        d="M345.46,41.051h9.885V23.236h8.617V14.8h-8.617V5.782H345.46v9.125h-3.466V23.2h3.466Z"
        transform="translate(124.361 2.103)" fill="#000" />
    <path id="Path_55061" data-name="Path 55061"
        d="M24.91,53.971C9.477,53.971,0,41.288,0,27.547,0,13.027,8.488,1.385,24.762,1.394c11.965,0,21.192,6.979,21.951,16.838h-10.6c-.527-4.6-5.594-8.3-11.354-8.3-8.4,0-14.008,6.373-14.017,18.078,0,8.084,4.161,17.272,13.925,17.272,9.117,0,12.27-4.381,12.27-11.261H25.8V25.809H46.768v8.274c.019,11.7-5.067,19.9-21.849,19.9Z"
        transform="translate(0 0.507)" fill="#000" />
    <path id="Path_55062" data-name="Path 55062" d="M37.592,51.991V2.184h9.847V51.991Z"
        transform="translate(13.67 0.794)" fill="#000" />
    <path id="Path_55063" data-name="Path 55063"
        d="M47.116,27.613c.8-8.129,8.164-15.507,16.458-16.231,13.139-1.15,21.479,6.626,21.47,19.083,0,11.56-7.351,19.191-18.927,19.191C53.1,49.656,45.84,40.458,47.116,27.613Zm28.016,2.87c0-7.4-3.024-11.044-9.006-11.044s-9.015,3.63-9.015,11.035S60.135,41.59,66.117,41.6s9.015-3.73,9.015-11.144Z"
        transform="translate(17.081 4.098)" fill="#000" />
    <path id="Path_55064" data-name="Path 55064"
        d="M77.76,52V2.2h9.69V20.285a12.928,12.928,0,0,1,11.058-5.7c9.617,0,15.284,7.785,15.257,18.829,0,12.3-6.741,19.562-16.126,19.562-4.549,0-8.026-1.72-10.374-5.413L87.192,52Zm26.047-17.933c0-7.468-2.718-11.261-8.479-11.27-5.446,0-8.257,3.929-8.257,11.859,0,6.156,3.634,10.456,8.322,10.456s8.4-4.517,8.4-11.044Z"
        transform="translate(28.276 0.799)" fill="#000" />
    <path id="Path_55065" data-name="Path 55065"
        d="M130.309,48.738a13.94,13.94,0,0,1-.582-3.259C127.378,48,123.439,49.7,118.447,49.7c-8.479,0-12.419-4.083-12.419-10.012,0-10.528,7.195-11.714,17.115-13.045,4.92-.661,6.288-1.629,6.288-4.146,0-2.372-2.422-3.775-6.288-3.775-4.466,0-6.288,2.145-6.74,5.4h-9.181c.157-7.568,4.4-12.827,16.366-12.818,11.808,0,15.895,5.169,15.895,14.357V48.738Zm-.675-17.87c-.989.969-2.727,1.485-6.361,2.145-5.6,1.041-7.425,2.6-7.425,5.712,0,2.743,1.665,4.074,4.771,4.074,5.067,0,8.858-3.63,8.932-7.93l.074-4Z"
        transform="translate(38.556 4.111)" fill="#000" />
    <path id="Path_55066" data-name="Path 55066"
        d="M157.989,48.742V26.636c0-5.631-1.664-7.188-6.361-7.188-5.141,0-7.628,2.815-7.628,8.374v20.92h-9.866V12.279h9.386v5.332c2.275-4.074,6.056-6.319,12.038-6.319,7.12,0,12.316,4.228,12.316,12.158V48.724l-9.894.018Z"
        transform="translate(48.776 4.106)" fill="#000" />
    <path id="Path_55067" data-name="Path 55067"
        d="M183.333,37.425c-.213,4.019-2.043,6.291-5.742,6.291-4.013,0-5.677-2.67-5.677-7.269V21.474H187.17V13.689H171.95V4.8h-9.717V37.416c0,7.858,4.308,14.683,15.21,14.683,10.522,0,15.071-6.889,15.071-14.6v-.072h-9.181Z"
        transform="translate(58.994 1.745)" fill="#000" />
    <path id="Path_55068" data-name="Path 55068"
        d="M231.974,29.991a2.813,2.813,0,0,0-1.129-2.263L194.053.3a2.324,2.324,0,0,0-1.145-.3,2.219,2.219,0,0,0-.638.091,2.259,2.259,0,0,0-1.582,2.788l4.392,6.409a36.589,36.589,0,0,1,0,41.424l-4.392,6.409a2.245,2.245,0,0,0,1.582,2.788,2.525,2.525,0,0,0,.638.091,2.323,2.323,0,0,0,1.145-.3l36.791-27.438A2.8,2.8,0,0,0,231.974,30Z"
        transform="translate(69.308 0)" fill="#000" />
    <path id="Path_55069" data-name="Path 55069"
        d="M393.761,31.675a4.8,4.8,0,1,1-4.739,4.79A4.8,4.8,0,0,1,393.761,31.675Zm0,8.648a3.851,3.851,0,1,0-3.713-3.858A3.744,3.744,0,0,0,393.761,40.323Zm-.6-1.286h-.988V33.819h1.809a1.676,1.676,0,0,1,1.773,1.64,1.623,1.623,0,0,1-1.137,1.547l1.176,2.032h-1.139l-1.1-1.938h-.393Zm.673-2.8c.578,0,.913-.28.913-.764,0-.5-.316-.783-.913-.783h-.673V36.26h.673Z"
        transform="translate(141.463 11.518)" fill="#000" />
</svg>
  