<svg version="1.1" id="Layer_1" xmlns="http://www.w3.org/2000/svg"
	xmlns:xlink="http://www.w3.org/1999/xlink" x="0" y="0" viewBox="0 0 272.3 95.7"
	style="enable-background:new 0 0 272.3 95.7" xml:space="preserve"><style>.st1{fill:#326ce5}.st2{fill:#fff}</style><defs><path id="SVGID_1_" d="M-5-5.2h285v107H-5z"/></defs><clipPath id="SVGID_00000124852220865299742580000014417095740386087053_"><use xlink:href="#SVGID_1_" style="overflow:visible"/></clipPath><g style="clip-path:url(#SVGID_00000124852220865299742580000014417095740386087053_)"><path class="st1" d="m40.4 4.6 3.2 5.4h12.3L59 4.8l26.4 12.5c1.6.8 2.9 2.2 3.3 4l.1.3L97 57c.4 1.8.1 3.6-1 5.1l-.2.2-23 28.3c-1.1 1.4-2.8 2.3-4.7 2.3H31.2c-1.8 0-3.5-.8-4.8-2.1l-.2-.2L3.4 62.2c-.1-.2-.2-.3-.4-.5-.9-1.3-1.2-3-1-4.5l.1-.3 8.1-35.3c.4-1.9 1.7-3.4 3.4-4.2L40.4 4.6z"/><path class="st2" d="M49.2.9c.9 0 1.9.1 2.7.5l.3.1 6.7 3.2-3.1 5.3H43.5l-3.2-5.4 6.4-3c.7-.3 1.4-.6 2.2-.6l.3-.1z"/><path d="M41.6 78.3 54 89.7c.4.4 1.1.4 1.5 0l12.4-11.4c.4-.4.6-1 .6-1.5L55.8 14h-2.3L41 76.7c-.1.6.2 1.2.6 1.6z" style="opacity:.285;fill:#fff;enable-background:new"/><path class="st2" d="M36.6 78.3 49 89.7c.4.4 1.1.4 1.5 0l12.4-11.4c.4-.4.6-1 .6-1.5L55.8 14H43.5L36 76.7c-.1.6.2 1.2.6 1.6z"/><path class="st1" d="M123.4 34.8c1.1-1.2 2.2-2.4 3.3-3.7 1.2-1.3 2.3-2.5 3.4-3.8 1-1.2 2-2.4 3.1-3.6 1-1.1 1.8-2.1 2.5-3H149c-2.5 2.9-5.1 5.8-7.7 8.7-2.6 2.9-5.4 5.7-8.2 8.5 1.5 1.3 3 3 4.6 4.8 1.6 1.9 3.1 3.8 4.6 5.7 1.4 1.9 2.8 3.9 4.1 6 1.2 2 2.3 3.8 3.1 5.4h-12.7c-.9-1.4-1.8-2.8-2.8-4.2-1-1.6-2.1-3.2-3.2-4.7-1.1-1.6-2.3-3.1-3.6-4.5-1.2-1.4-2.5-2.7-3.7-3.6v17.1h-11.1v-56l11.1-1.8v32.7zm61.1 23.7c-1.9.5-4.3 1-7.3 1.5s-6.1.7-9.4.7c-3.3 0-6.1-.4-8.3-1.3-2.2-.9-3.9-2.1-5.2-3.7-1.3-1.6-2.2-3.6-2.8-5.8-.5-2.2-.8-4.7-.8-7.4V20.7h11.1v20.5c0 3.6.5 6.2 1.4 7.7.9 1.6 2.7 2.4 5.3 2.4.8 0 1.6 0 2.5-.1.9-.1 1.7-.2 2.4-.3V20.7h11.1v37.8zM216.4 40c0-7.1-2.6-10.7-7.9-10.7-1.1 0-2.3.1-3.4.4-1.1.3-2 .7-2.7 1.1V51c.5.1 1.2.2 2.1.3.8 0 1.8.1 2.8.1 3 0 5.3-1 6.8-3.1 1.5-2.2 2.3-4.9 2.3-8.3zm11.3.3c0 3.1-.5 6-1.4 8.5-.9 2.5-2.2 4.7-3.9 6.5-1.7 1.8-3.9 3.2-6.4 4.2-2.5.9-5.4 1.4-8.6 1.4-1.3 0-2.8-.1-4.2-.2-1.4-.1-2.9-.2-4.3-.4-1.3-.2-2.7-.4-4-.7-1.2-.3-2.3-.6-3.4-.9V3.9l11.1-1.8v19.5c1.2-.5 2.5-1 3.9-1.3 1.3-.3 2.8-.4 4.3-.4 2.8 0 5.2.5 7.4 1.5 2.1.9 3.9 2.3 5.4 4.1 1.4 1.8 2.5 3.9 3.3 6.5.4 2.4.8 5.2.8 8.3zm3.1.3c0-3.5.5-6.5 1.6-9.1 1.1-2.6 2.5-4.8 4.2-6.5 1.7-1.7 3.7-3 6-3.9 2.2-.9 4.6-1.3 7-1.3 5.6 0 9.9 1.7 13.2 5.1 3.2 3.4 4.8 8.4 4.8 15 0 .6 0 1.4-.1 2.2 0 .7-.1 1.4-.1 2h-25.1c.2 2.3 1.3 4.1 3.2 5.4 1.9 1.3 4.4 2 7.6 2 2 0 4-.2 6-.5 2-.4 3.6-.9 4.8-1.4l1.5 9c-.6.3-1.4.6-2.4.9-1 .3-2.1.5-3.3.7-1.2.2-2.5.4-3.9.6-1.4.1-2.8.2-4.2.2-3.5 0-6.6-.5-9.2-1.6-2.6-1-4.7-2.5-6.5-4.2-1.7-1.8-3-4-3.8-6.5-.9-2.6-1.3-5.3-1.3-8.1zm26-4.3c0-.9-.2-1.9-.5-2.8-.2-.9-.7-1.7-1.3-2.4-.5-.7-1.3-1.3-2.2-1.7-.8-.4-1.9-.7-3.2-.7-1.2 0-2.3.2-3.2.7-.9.4-1.6.9-2.2 1.6-.6.7-1.1 1.6-1.4 2.5-.3.9-.5 1.8-.7 2.8h14.7z"/><path d="M136.4 77.3c-.7-5.5-4.9-8.7-10.4-8.7-6.3 0-11.2 4.5-11.2 12.3 0 7.8 4.8 12.3 11.2 12.3 6.2 0 9.9-4.1 10.4-8.5h-5.1c-.5 2.6-2.5 4-5.2 4-3.6 0-6.1-2.7-6.1-7.8 0-5 2.4-7.8 6.2-7.8 2.8 0 4.8 1.6 5.2 4.2h5zm8 15.6 1.8-5.5h8.7l1.8 5.5h5.4l-8.3-24h-6.5l-8.3 24h5.4zm3-9.4 3-9.1h.2l3 9.1h-6.2zm18.1 9.4h5.1v-8.5h3.7l4.5 8.5h5.6l-5.1-9.3c2.7-1.2 4.2-3.6 4.2-6.8 0-4.8-3.2-7.8-8.6-7.8h-9.5l.1 23.9zm5.1-12.6V73h3.4c2.9 0 4.3 1.3 4.3 3.7 0 2.4-1.4 3.6-4.3 3.6h-3.4zm17.2 12.6H204v-4.2h-11.1V83h10.3v-4.2h-10.3v-5.7H204v-4.2h-16.2v24zm20.8 0h16.2v-4.2h-11.1V83H224v-4.2h-10.3v-5.7h11.1v-4.2h-16.2v24zm20.8 0h5.1v-8.5h3.7l4.5 8.5h5.6l-5.1-9.3c2.7-1.2 4.2-3.6 4.2-6.8 0-4.8-3.2-7.8-8.6-7.8h-9.5c.1-.1.1 23.9.1 23.9zm5.1-12.6V73h3.4c2.9 0 4.3 1.3 4.3 3.7 0 2.4-1.4 3.6-4.3 3.6h-3.4zm30.2-4.5h4.9c-.1-4.3-3.6-7.2-8.9-7.2-5.3 0-9.1 2.9-9.1 7.3 0 3.5 2.5 5.6 6.5 6.5l2.6.7c2.6.6 4.1 1.4 4.1 3 0 1.8-1.7 3-4.3 3-2.6 0-4.5-1.2-4.7-3.6h-4.9c.1 5.2 3.8 7.9 9.7 7.9 5.9 0 9.3-2.8 9.3-7.2 0-4-3-6.1-7.2-7.1l-2.2-.5c-2.1-.5-3.8-1.3-3.8-3 0-1.5 1.4-2.7 3.9-2.7 2.5-.1 3.9 1 4.1 2.9z" style="fill:#001a51"/></g></svg>