<svg version="1.1" id="Layer_1" xmlns="http://www.w3.org/2000/svg" x="0" y="0"
	viewBox="0 0 365.1 138.9" style="enable-background:new 0 0 365.1 138.9" xml:space="preserve"><style>.st1{fill:#4d7cf4}</style><path d="M169.2 61.9c1.4-1.5 2.8-3 4.1-4.6 1.4-1.5 2.8-3.1 4.2-4.7 1.3-1.5 2.5-3 3.8-4.5 1.1-1.2 2.1-2.4 3.1-3.7h16.2c-3.1 3.6-6.3 7.2-9.5 10.7-3.3 3.6-6.6 7.1-10.1 10.4 1.8 1.6 3.7 3.6 5.7 6 2 2.3 3.9 4.6 5.7 7.1 1.8 2.4 3.5 4.8 5 7.3 1.5 2.4 2.8 4.7 3.8 6.7h-15.7c-1.1-1.8-2.2-3.5-3.4-5.2-1.2-2-2.5-3.9-3.9-5.8s-2.9-3.8-4.5-5.6c-1.5-1.8-3.1-3.3-4.6-4.5v21.1h-13.6V23.8l13.6-2.2.1 40.3zM248.8 91c-2.3.7-5.3 1.3-9 1.8-3.7.6-7.5.9-11.5.9-4.1 0-7.5-.6-10.3-1.6-2.7-1.1-4.8-2.6-6.4-4.6-1.6-2-2.7-4.4-3.4-7.1-.7-2.7-1-5.8-1-9.1V44.5h13.6v25.2c0 4.4.6 7.6 1.7 9.5 1.2 2 3.3 2.9 6.5 2.9 1 0 2 0 3.1-.1 1-.1 2-.2 2.9-.4V44.5h13.6V91zm43.7-22.8c0-8.8-3.2-13.2-9.7-13.2-1.4 0-2.8.2-4.2.5-1.3.4-2.4.8-3.3 1.4v24.8c.7.1 1.5.2 2.6.4 1 .1 2.2.1 3.4.1 3.7 0 6.5-1.3 8.4-3.8 1.8-2.6 2.8-6 2.8-10.2zm13.9.4c0 3.8-.6 7.3-1.7 10.4-1.1 3.1-2.7 5.8-4.9 8-2.1 2.2-4.8 3.9-7.9 5.1-3.1 1.2-6.7 1.7-10.6 1.7-1.6 0-3.4-.1-5.2-.3-1.8-.1-3.5-.3-5.3-.6-1.7-.2-3.3-.5-4.9-.8-1.4-.3-2.8-.7-4.2-1.1V23.8l13.6-2.2v24c1.5-.7 3.1-1.2 4.8-1.6 1.6-.4 3.4-.5 5.3-.5 3.4 0 6.4.6 9.1 1.8 2.6 1.2 4.8 2.8 6.6 5 1.8 2.2 3.1 4.9 4 8 .8 3.1 1.3 6.5 1.3 10.3zm8.2.3c0-4.3.6-8 1.9-11.2 1.3-3.2 3.1-5.9 5.2-8.1s4.6-3.8 7.3-4.9c2.8-1.1 5.7-1.6 8.6-1.6 6.8 0 12.2 2.1 16.2 6.3 4 4.2 6 10.3 6 18.4 0 .8 0 1.7-.1 2.7-.1.9-.1 1.7-.2 2.5h-31c.3 2.8 1.6 5 3.9 6.7 2.3 1.6 5.4 2.5 9.3 2.5 2.5 0 4.9-.2 7.3-.6 2.4-.5 4.4-1.1 6-1.7l1.8 11.1c-.7.4-1.7.7-2.9 1.1-1.4.4-2.7.7-4.1.9-1.6.3-3.2.6-4.8.7-1.7.2-3.4.3-5.1.3-4.3 0-8.1-.6-11.4-1.9-3.2-1.3-5.8-3-8-5.2-2.1-2.3-3.6-4.9-4.7-8-.7-3.1-1.2-6.4-1.2-10zm32-5.2c-.1-1.2-.3-2.3-.6-3.4s-.8-2.1-1.6-2.9c-.7-.9-1.6-1.6-2.7-2.1-1-.6-2.4-.8-3.9-.8s-2.8.3-3.9.8-2 1.2-2.7 2c-.7.9-1.3 1.9-1.7 3-.4 1.1-.6 2.2-.8 3.4h17.9z" style="fill:#253391"/><path class="st1" d="M155.2 134.7V108h18.1v5.1h-12v5.2H172v4.9h-10.7v6.4h12.9v5.1h-19zm43.4 0c-1.1-2.3-2.1-4.6-3.1-7-1-2.4-2-4.8-2.9-7.2-.9-2.3-1.7-4.5-2.6-6.8-.7-1.9-1.4-3.9-2-5.8h6.6c.5 1.5 1.1 3.2 1.7 5l1.9 5.3c.6 1.8 1.3 3.5 1.9 5.1.5 1.4 1.1 2.8 1.7 4.2.6-1.4 1.1-2.8 1.6-4.2.6-1.6 1.2-3.3 1.9-5.1.6-1.8 1.3-3.5 1.9-5.3.6-1.7 1.1-3.3 1.7-5h6.4c-.7 1.9-1.4 3.9-2 5.8-.8 2.3-1.7 4.5-2.5 6.8-.9 2.4-1.9 4.8-2.9 7.2-1 2.3-2 4.7-3.1 7h-6.2zm31.5 0V108h18.1v5.1h-12v5.2h10.7v4.9h-10.7v6.4H249v5.1h-18.9zm52.9 0c-1.7-3.1-3.6-6.1-5.6-9.1-2-2.9-4.1-5.8-6.4-8.5v17.5h-6V108h4.9c.8.8 1.8 1.9 2.8 3.1 1.1 1.3 2.1 2.6 3.1 4 1.1 1.4 2.2 2.9 3.2 4.4 1 1.4 2 2.9 3 4.3V108h6v26.7h-5zm42.6-26.7v5.1h-8.1v21.6h-6v-21.6h-8.1V108h22.2zm22.8 22.1c.9 0 1.5-.1 2.1-.2.6-.2 1-.3 1.4-.6.3-.3.6-.6.7-.9.1-.4.2-.7.2-1.1 0-.9-.4-1.6-1.2-2.2-.8-.6-2.2-1.2-4.2-1.9-.9-.3-1.8-.7-2.6-1-.8-.4-1.6-.9-2.4-1.5-.7-.6-1.3-1.4-1.7-2.2-.4-.9-.7-1.9-.7-3.2s.2-2.3.7-3.3c.5-1 1.1-1.9 2-2.5.8-.7 1.9-1.2 3.1-1.6 1.2-.4 2.6-.6 4.1-.6 1.8 0 3.4.2 4.7.6 1.3.4 2.4.8 3.2 1.3l-1.7 4.7c-.8-.4-1.6-.7-2.5-1-.9-.3-2-.5-3.3-.5-1.4 0-2.5.2-3.1.6-.6.4-.9 1-.9 1.8 0 .5.1.9.3 1.2.2.3.6.6 1 .9.4.3.9.5 1.5.7.6.2 1.2.4 1.9.7 1.2.4 2.4 1 3.6 1.5 1 .5 1.9 1.1 2.5 1.7.7.7 1.2 1.5 1.5 2.4.3.9.5 2 .5 3.3 0 2.5-.9 4.4-2.6 5.8-1.7 1.4-4.4 2-7.9 2-1.2 0-2.3-.1-3.2-.2-.9-.1-1.7-.3-2.5-.5-.6-.2-1.3-.4-1.9-.7-.5-.2-1-.4-1.3-.7l1.7-4.8c.8.4 1.8.8 2.9 1.2.9.7 2.4.8 4.1.8z"/><path d="M80.2 21.7s6 9 6.6 14.4 0 8.7 0 8.7" style="fill:none;stroke:#7da0f7;stroke-width:1.799"/><path d="M67.5 6 72 3c1.1-.7 2.6-.4 3.3.7L86 19.9c.7 1.1.4 2.6-.7 3.3l-4.5 3c-1.1.7-2.6.4-3.3-.7L66.8 9.3c-.8-1.1-.5-2.6.7-3.3z" style="fill:#0a349f"/><path d="M4 42.9h104.6l-7.7 23.4H11.7L4 42.9z" style="fill:#1d59f1"/><path class="st1" d="M4 31.9h104.6v11H4v-11zm11 92.2h83.9v11H15v-11z"/><path d="M28.8 111.7h56.4L99 124.1H15l13.8-12.4z" style="fill:#7da0f7"/><path class="st1" d="M21.5 52.5h69.6l-7 66.1H28.4c0 .1-6.9-66.1-6.9-66.1z"/><path d="M56.8 61.2c-.7.1-1.2.7-1.2 1.4v.3c0 .4.1.8.2 1.2.1.7.2 1.5.1 2.2-.1.2-.2.5-.4.6v.5c-.7.1-1.5.2-2.2.3-3 .7-5.8 2.3-8 4.5l-.4-.2c-.2.1-.5 0-.7-.1-.6-.4-1.1-.9-1.6-1.5-.2-.3-.5-.6-.8-.8l-.3-.2c-.2-.2-.5-.3-.8-.3-.4 0-.7.1-1 .4-.4.6-.3 1.4.3 1.8l.3.2c.3.2.7.4 1 .6.6.4 1.3.8 1.8 1.3.1.2.2.4.2.7l.4.4c-2.2 3.2-3 7.1-2.5 11l-.5.1c-.1.2-.3.4-.5.5-.7.2-1.4.3-2.2.4-.4 0-.8 0-1.2.1l-.3.1c-.7.1-1.1.7-1 1.4 0 .3.2.5.3.7.3.3.8.4 1.2.3h.3c.4-.1.7-.2 1.1-.4.7-.3 1.4-.5 2.1-.6.3 0 .5.1.7.2l.5-.1c1.2 3.7 3.7 6.8 7 8.8l-.2.5c.1.2.1.5.1.7-.3.7-.7 1.4-1.1 2-.2.3-.5.6-.7 1l-.2.3c-.3.6-.1 1.3.4 1.7.2.1.5.2.7.2.5-.1.8-.4 1-.8l.2-.3c.1-.4.3-.7.3-1.1.1-.2.2-.5.3-.7.2-.6.4-1.1.7-1.4.1-.1.3-.2.5-.3l.3-.5c3.6 1.4 7.6 1.4 11.2 0l.2.5c.2 0 .5.2.6.4.3.7.6 1.3.8 2 .1.4.2.8.4 1.1l.2.3c.2.6.9 1 1.6.7.2-.1.5-.3.6-.5.2-.4.3-.9 0-1.3l-.2-.3c-.2-.3-.4-.7-.7-1-.4-.6-.8-1.3-1.1-1.9-.1-.3 0-.5.1-.7.3-.4.3-.6.2-.8 3.3-2 5.8-5.1 7-8.8l.5.1c.2-.2.4-.3.7-.3.7.1 1.4.4 2.1.6.4.2.7.3 1.1.4H76.6c.6.2 1.3-.1 1.5-.8.1-.3.1-.5 0-.8-.2-.4-.5-.8-1-.8l-.4-.1c-.4-.1-.8-.1-1.2-.1-.7 0-1.5-.2-2.2-.4-.2-.1-.4-.3-.5-.5l-.5-.1c.5-3.8-.4-7.7-2.5-11l.4-.4c0-.3.1-.5.2-.7.6-.5 1.2-.9 1.8-1.3.3-.2.7-.4 1-.6l.3-.2c.6-.4.8-1.1.4-1.7-.4-.6-1.1-.8-1.7-.4-.1.1-.2.1-.2.2l-.3.2-.8.8c-.5.6-1 1.1-1.6 1.5 0 .4-.3.5-.5.4l-.5.3c-2.7-2.8-6.3-4.5-10.1-4.9v-.5c-.2-.1-.3-.4-.4-.6 0-.7 0-1.5.1-2.2.1-.4.1-.8.2-1.2v-.4c0-.6-.5-1.2-1.3-1.3zm-1.5 9.5-.3 6.4c0 .4-.2.7-.6.9-.4.2-.8.1-1.1-.1L48 74.2c1.7-1.6 3.8-2.8 6-3.3.5-.1.9-.2 1.3-.2zm10.4 3.5c-2-1.9-4.5-3.2-7.3-3.5l.4 6.4c0 .6.5 1.1 1.1 1.1.2 0 .5-.1.7-.2-.1-.1 5.1-3.8 5.1-3.8zm-19.6 2.4c-1.5 2.4-2.1 5.2-1.8 7.9l6.1-1.8c.6-.2.9-.8.7-1.3-.1-.2-.2-.4-.3-.5l-4.7-4.3zm23.3 7.9c.3-2.8-.4-5.5-1.8-7.9l-4.8 4.3c-.3.3-.4.7-.3 1.1.1.4.4.7.8.8-.1-.1 6.1 1.7 6.1 1.7zm-13.5-3.3h2l1.2 1.5-.4 1.9-1.8.8-1.8-.8-.4-1.9 1.2-1.5zm6.5 5.2h-.2c-.6 0-1 .5-1 1.1 0 .1 0 .2.1.4l2.4 5.9c2.4-1.5 4.2-3.8 5.1-6.4-.1 0-6.4-1-6.4-1zm-10.9 0c.4 0 .7.2.9.5.2.3.2.7.1 1L50 93.8c-2.3-1.5-4.1-3.7-5-6.3l6.3-1.1h.2zm6.3 3.1c-.2-.4-.6-.6-1-.6s-.7.2-.9.5L52.8 95c2.2.8 4.6.9 6.9.4l1.2-.4-3.1-5.5z" style="fill-rule:evenodd;clip-rule:evenodd;fill:#fff"/><path d="M55.6 62.6h.2-.2zm1.2-1.4.1-.1-.1.1zm-1.2 1.7h-.2.2zm.2 1.2h.1-.1zm.1 2.2h.1-.1zm-.4.6-.1-.1v.1h.1zm0 .5v.2h.1v-.1l-.1-.1zm-2.2.4v.1-.1zm-7.9 4.5-.1.1.1.1.1-.1-.1-.1zm-.5-.3.1-.1h-.2l.1.1zm-.7-.1-.1.1c0 .1.1-.1.1-.1zm-1.7-1.4-.1.1.1-.1zm-.7-.9.1-.1-.1.1zm-.3-.2-.1.1.1-.1zm-.9-.3v.2-.2zm-.9.4-.1-.1.1.1zm.3 1.8.1-.1-.1.1zm.2.2-.1.1.1-.1zm1 .6.1-.1-.1.1zm1.8 1.3.1-.1-.1.1zm.3.7h-.2v.1l.2-.1zm.4.3.1.1.1-.1-.1-.1-.1.1zm-2.5 11v.1h.1v-.1h-.1zm-.5.2v-.1h-.1l.1.1zm-.5.5v.1-.1zm-2.2.4v.2-.2zm-1.2 0v-.1.1zm-.3.1v.2-.2zm0 0v-.2c-.1.1 0 .2 0 .2zm-1 .8h.1-.1zm.3 1.3-.1.1c-.1 0 .1-.1.1-.1zm1.2.3v-.2.2zm0 0v.2-.2zm.4 0v.1-.1zm1-.4-.1-.1.1.1zm2.2-.7v-.2c-.1.1 0 .2 0 .2zm.7.3-.1.1h.1v-.1zm.5-.1h.1V88h-.1v.1zm7 8.8.1.1.1-.1-.1-.1-.1.1zm-.2.4-.1-.1v.2l.1-.1zm.1.7.1.1-.1-.1zm-1.1 2 .1.1-.1-.1zm-.6 1-.1-.1.1.1zm-.2.3.1.1c.1 0-.1-.1-.1-.1zm0 1.3.1-.1-.1.1zm1.2.6v.1-.1zm1-.8-.1-.1.1.1zm.2-.3.1.1-.1-.1zm.3-1.2-.1-.1c0 .1.1.1.1.1zm.3-.7h.1-.1zm.7-1.4-.1-.1.1.1zm.5-.3v.1h.1v-.1H51zm.3-.5.1-.1h-.1l-.1.1c-.1-.1.1 0 .1 0zm11.2 0 .1-.1-.1-.1h-.1l.1.2zm.2.5-.1.1v.1h.1v-.2zm.7.4.1-.1-.1.1zm.8 2h.1-.1zm.3 1.1-.1.1.1-.1zm.2.3.1-.1-.1.1zm2.2.3.1.1-.1-.1zm0-1.3-.1.1.1-.1zm-.2-.3.1-.1c.1 0-.1.1-.1.1zm-.6-1-.1.1.1-.1zM65 98.1h-.1.1zm.1-.8.1.1v-.2c0 .1-.1.1-.1.1zm-.2-.5-.1-.1-.1.1v.1l.2-.1zm7-8.8v-.1h-.1v.1h.1zm.5.1v.1h.2l-.2-.1zm.7-.2v-.1.1zm2.1.6.1-.1-.1.1zm1.1.4v.1-.1zm.2.1v.1-.1zm0 0v-.1.1zm.1 0v.1-.1zm.1 0v-.1.1zm1.5-1.6h.1-.1zm-1-.8v.1-.1zm-.4-.1v-.1.1zm-1.1-.1v.1-.1zm-2.2-.3-.1.1.1-.1zm-.5-.6.1-.1v-.1H73v.2zm-.5-.1h-.1v.1h.1v-.1zm-2.6-11-.1-.1-.1.1.1.1.1-.1zm.5-.4.1.1.1-.1v-.1l-.2.1zm.2-.6-.1-.1.1.1zm1.8-1.3-.1-.1.1.1zm1-.6.1.1-.1-.1zm.3-.2-.1-.1.1.1zm.5-1.2h.2-.2zm-.8-1 .1-.1-.1.1zm-1.2.3.1.1-.1-.1zm-.3.2-.1-.1.1.1zm-.8.8.1.1-.1-.1zm-1.6 1.5.1.1c0 .1-.1-.1-.1-.1zm-.7.1v-.1h-.2l.2.1zm-.5.4-.1.1.1.1.1-.1-.1-.1zm-10.1-4.9H58v.1h.1l.1-.1zm0-.5h-.1.1zm0 0h.2-.2zm0 0h.2-.2zm0 0h-.1.1zm0 0h.2-.2zm0 0h-.1.1zm-.1-.1h.2v-.1h-.1l-.1.1zm-.3-.6h-.2.2zm.1-2.2h-.1.1zm.2-1.1h.2-.2zm0-.4h-.2.2zm-1.2-1.4-.1.1.1-.1zM55 77.1v.2h.1v-.1l-.1-.1zm.3-6.4h.2v-.2h-.2v.2zm-.4 6.4v-.2h-.1v.1l.1.1zm-.6.9-.1-.1.1.1zm-1.1-.1.1-.1-.1.1zM48 74.2l-.1-.1-.1.1.1.1.1-.1zm6-3.3v-.1.1zm1.3-.2v-.2.2zm3.1 0v-.2h-.2v.2h.2zm7.3 3.5.1.1.1-.1-.1-.1-.1.1zm-7 2.9h.2c0-.1-.2 0-.2 0zm.6.9-.1.1.1-.1zm1.2-.1-.1-.1.1.1zm-14.4-1.3-.1-.1-.1.1.1.1.1-.1zm-1.8 7.9h-.1v.2h.2l-.1-.2zm6.2-1.8v.1h.1v-.1h-.1zm0 0v-.1h-.1v.1h.1zm.4-1.8h-.2v.1h.1l.1-.1zm0 0h.1v-.1l-.1.1zm-4.8-4.3.1.1-.2-.2.1.1zm21.5 0 .1-.1-.3.1h.2zm1.8 7.9v.1l.2.1v-.2h-.2zm-1.8-7.9.1.1.1-.1-.1-.1-.1.1zm-4.8 4.2.1.1-.1-.1zm-.3 1.1h-.1.1zm.7.8h.2v-.1h-.1l-.1.1zm0 0H63v.1h.1l.1-.1zm-5.4-1.5.1-.1V81h-.1v.2zm-1.9 0V81h-.1v.1l.1.1zm3.1 1.5h.1v-.2c0 .1-.1.2-.1.2zm-.4 1.9.1.1h.1v-.1h-.2zm-1.8.9-.1.1h.2l-.1-.1zm-1.7-.9H55v.1h.1c-.1 0 0-.1 0-.1zm-.5-1.9-.1-.1v.2c0-.1.1-.1.1-.1zm7.5 3.7v-.1H62v.1h.1zm.3 0v-.1.1zm-.3 0v.2h.1v-.1c.1-.1-.1-.1-.1-.1zm-.8.5.1.1-.1-.1zm-.1 1 .1-.1-.1.1zm2.5 5.9-.1.1.1.2.2-.1-.2-.2zm5-6.4.1.1.1-.2h-.2c.1 0 0 .1 0 .1zm-16.3-.5-.1.1.1-.1zm-.9-.5v-.2h-.1v.1l.1.1zm1 1.5-.1-.1h.1v.1zm0 0 .1.1h-.1zM50 93.8v.1l.2.1.1-.2H50zm-5-6.3v-.1h-.2l.1.2c-.1-.1.1-.1.1-.1zm6.3-1.1v-.2.2zm.2 0v.1h.1l.1-.1c-.1.1-.2 0-.2 0zm5.3 2.6v-.2h-.2l.1.2h.1zm1 .5-.1.1v.1h.1v-.2zm-1-.5v.2h.2v-.3l-.2.1zm-.9.5-.1-.1.1.1zm-3.1 5.6-.1-.1-.1.2.2.1v-.2zm6.9.4v.1-.1zm1.2-.4v.1l.2-.1-.1-.1-.1.1zm-3.1-5.6.1-.1v-.1h-.1v.2zm-2-26.9c0-.6.4-1.2 1.1-1.2v-.3c-.8.1-1.4.7-1.3 1.5h.2zm0 .3v-.3h-.3v.3h.3zm.2 1.2c-.1-.4-.1-.8-.2-1.1h-.3c0 .4.1.8.2 1.2l.3-.1zm.1 2.2c0-.8 0-1.5-.1-2.2h-.3c.1.7.2 1.5.1 2.2h.3zm-.5.7c.2-.2.4-.4.4-.7l-.3-.1c-.1.2-.2.4-.4.6.1 0 .3.2.3.2zm.1.5V67h-.3v.5h.3zm-2.4.4c.7-.2 1.4-.3 2.2-.3v-.3c-.7.1-1.5.2-2.2.3v.3zm-7.8 4.5c2.1-2.3 4.9-3.8 7.9-4.5l-.1-.3c-3.1.7-5.9 2.3-8 4.6-.1 0 .2.2.2.2zm-.7-.3.4.3.2-.2-.4-.3-.2.2zm-.7 0c.3.1.6.2.8.1l-.1-.3c-.2.1-.4 0-.6-.1l-.1.3zm-1.7-1.5c.5.6 1.1 1.1 1.7 1.5l.2-.2c-.6-.4-1.1-.9-1.6-1.5l-.3.2zm-.8-.9.8.8.2-.2c-.3-.3-.5-.6-.8-.9.1.1-.2.3-.2.3zm-.2-.2.3.2.2-.2-.3-.2-.2.2zm-.8-.3c.3 0 .5.1.8.3l.2-.2c-.3-.2-.6-.3-.9-.4l-.1.3zm-.8.4c.2-.3.5-.4.8-.4v-.3c-.4 0-.8.2-1.1.5l.3.2zm.2 1.6c-.5-.4-.6-1.1-.3-1.6l-.2-.2c-.5.6-.3 1.5.3 2l.2-.2zm.3.2-.3-.2-.2.2.3.2.2-.2zm1 .6c-.3-.2-.7-.4-1-.6l-.2.2c.3.2.7.4 1 .6l.2-.2zm1.8 1.3c-.6-.5-1.2-.9-1.8-1.3l-.1.3c.6.4 1.2.8 1.8 1.3l.1-.3zm.3.8c0-.3-.1-.6-.3-.8l-.2.2c.1.2.2.4.2.6h.3zm.4.2-.4-.3-.2.2.4.4.2-.3zm-2.4 11.1c-.5-3.8.3-7.7 2.5-10.9l-.2-.2c-2.2 3.3-3.1 7.2-2.5 11.1h.2zm-.7.3.5-.1-.1-.3-.5.1.1.3zm-.4.5c.2-.1.4-.3.6-.6l-.3-.2c-.1.2-.3.4-.5.5l.2.3zm-2.3.4c.7 0 1.5-.2 2.2-.4l-.1-.2c-.7.2-1.4.3-2.2.4l.1.2zm-1.2.1c.4-.1.8-.1 1.2-.1v-.3c-.4 0-.8 0-1.2.1v.3zm-.3.1.3-.1-.1-.3-.3.1.1.3zm0 0v-.3.3zm-.9.7c.1-.4.5-.7.9-.7v-.3c-.5.1-.9.4-1.1.9l.2.1zm.3 1.1c-.3-.3-.4-.7-.2-1.1l-.3-.1c-.2.5 0 1 .3 1.4l.2-.2zm1.1.3c-.4.1-.8 0-1.1-.3l-.2.2c.4.4.9.5 1.4.3l-.1-.2zm0-.1v.3-.3zm.3 0H37v.3h.3c.1 0 0-.3 0-.3zm1.1-.4c-.4.2-.7.3-1.1.4l.1.3c.4-.1.7-.2 1.1-.4l-.1-.3zm2.1-.6c-.7.1-1.5.4-2.2.6l.1.3c.7-.3 1.4-.5 2.1-.6v-.3zm.9.3c-.2-.2-.5-.3-.8-.3v.3c.2 0 .4.1.6.2l.2-.2zm.4-.2-.6.1v.3l.5-.1.1-.3zm7.1 8.8c-3.3-2-5.8-5-7-8.7l-.3.1c1.2 3.7 3.7 6.9 7.1 8.9.1 0 .2-.3.2-.3zm-.1.7.2-.5-.3-.1-.2.5.3.1zm.1.6c0-.3 0-.5-.1-.8l-.3.1c.1.2.1.4.1.6 0 .1.3.1.3.1zm-1.2 2.1c.4-.6.8-1.3 1.1-2l-.2-.1c-.3.7-.7 1.3-1.1 2 0-.1.2.1.2.1zm-.6 1c.2-.3.4-.7.6-1l-.2-.2c-.2.3-.5.6-.7 1l.3.2zm-.1.3.2-.3-.3-.1-.2.3.3.1zm0 1.1c-.2-.3-.2-.8 0-1.1l-.3-.2c-.3.4-.2 1 0 1.4 0 .1.3-.1.3-.1zm1 .5c-.4 0-.8-.1-1-.5l-.3.2c.3.4.8.7 1.3.6v-.3zm.9-.7c-.1.4-.5.6-.9.7v.3c.5-.1 1-.4 1.1-.9l-.2-.1zm.1-.3-.2.3.3.1.2-.3-.3-.1zm.4-1.1c-.1.4-.2.7-.3 1.1l.3.1c.1-.4.3-.7.4-1.1l-.4-.1zm.2-.8c-.1.2-.2.5-.3.7l.3.1c.1-.2.2-.5.3-.8h-.3zm.7-1.4c-.3.4-.5.9-.7 1.5l.3.1c.2-.6.4-1.1.6-1.4.1-.1-.2-.2-.2-.2zm.7-.4c-.2 0-.4.1-.6.3l.2.2c.1-.1.3-.2.4-.2v-.3zm.1-.4-.3.5.3.1.3-.5-.3-.1zm11.3 0c-3.6 1.4-7.5 1.3-11.1 0l-.1.3c3.6 1.4 7.7 1.4 11.3 0l-.1-.3zm.5.5-.3-.4-.3.1.2.5c.1 0 .4-.2.4-.2zm.6.4c-.2-.2-.4-.4-.7-.4v.3c.2 0 .4.1.5.3l.2-.2zm.8 2.1c-.2-.7-.5-1.4-.8-2.1l-.3.1c.3.6.6 1.3.8 2 0 .1.3 0 .3 0zm.4 1.1c-.1-.4-.3-.7-.3-1.1l-.4.1c.1.4.2.8.4 1.1l.3-.1zm.1.3-.2-.3-.3.1.2.3.3-.1zm.9.7c-.4 0-.7-.3-.9-.7l-.3.1c.2.5.6.8 1.1.9l.1-.3zm1-.5c-.2.3-.6.5-1 .5v.3c.5.1 1-.2 1.3-.6l-.3-.2zm.1-1.1c.2.3.2.8 0 1.1l.3.2c.3-.4.3-1 0-1.4-.1-.1-.3.1-.3.1zm-.2-.4.2.3.3-.1-.2-.3-.3.1zm-.6-.9c.2.3.4.6.6 1l.3-.2c-.2-.3-.4-.7-.7-1l-.2.2zm-1.1-2c.3.7.7 1.3 1.1 2l.2-.2c-.4-.6-.8-1.2-1.1-1.9l-.2.1zm.1-.8c-.2.3-.2.6-.1.8l.3-.1c0-.2 0-.4.1-.6-.1 0-.3-.1-.3-.1zm-.2-.4c.1.2.1.3.2.5l.3-.1c-.1-.2-.1-.3-.2-.5-.1 0-.3.1-.3.1zm7-8.9c-1.2 3.7-3.6 6.8-6.9 8.7l.1.3c3.4-2 5.9-5.2 7.1-8.9-.1 0-.3-.1-.3-.1zm.6 0-.5-.1-.1.3.5.1.1-.3zm.7-.3c-.3 0-.6.1-.8.3l.2.2c.2-.1.4-.2.6-.2v-.3zm2.2.7c-.7-.3-1.4-.5-2.1-.6l-.1.2c.7.1 1.4.4 2.1.6l.1-.2zm1.1.4c-.4-.1-.7-.3-1.1-.4l-.1.3c.4.2.7.3 1.1.4l.1-.3zm.1 0h-.2l-.1.3h.2c.1 0 .1-.3.1-.3zm0 0-.1.3.1-.3zm.2 0h-.2l-.1.3h.1l.2-.3zm0 0v.3-.3zm1.1-.2c-.3.3-.7.4-1.1.3l-.1.3c.5.2 1 0 1.4-.3l-.2-.3zm.3-1.1c.1.4 0 .8-.3 1.1l.2.2c.4-.4.5-.9.3-1.4l-.2.1zm-.9-.7c.4.1.7.3.9.7l.3-.1c-.2-.5-.6-.8-1.1-.9-.1 0-.1.3-.1.3zm-.4-.1.4.1.1-.3-.4-.1-.1.3zm-1.1-.1c.4 0 .8 0 1.2.1v-.3c-.4-.1-.8-.1-1.2-.1v.3zm-2.3-.4c.7.2 1.5.3 2.2.4v-.3c-.7 0-1.4-.2-2.2-.4.1 0 0 .3 0 .3zm-.6-.6c.1.2.3.4.6.6l.1-.3c-.2-.1-.4-.3-.5-.5l-.2.2zm-.4-.1.5.1.1-.3-.5-.1-.1.3zm-2.6-11c2.1 3.2 3 7 2.5 10.9h.3c.5-3.9-.4-7.8-2.6-11.1l-.2.2zm.5-.6-.4.4.2.2.4-.4-.2-.2zm.2-.6c-.2.2-.3.5-.3.8h.3c0-.2.1-.4.2-.6l-.2-.2zm1.8-1.3c-.6.4-1.3.8-1.8 1.3l.2.2c.6-.5 1.2-.9 1.8-1.3l-.2-.2zm1-.6c-.3.2-.7.4-1 .6l.1.3c.4-.2.7-.4 1-.6l-.1-.3zm.3-.2-.3.2.2.2.3-.2-.2-.2zm.5-1.1c0 .4-.2.8-.5 1l.2.3c.4-.3.7-.8.6-1.3h-.3zm-.7-.9c.4.1.7.5.7.9h.3c-.1-.5-.4-1-.9-1.1 0-.1-.1.2-.1.2zm-1.1.3c.3-.3.7-.4 1.1-.3l.1-.3c-.5-.2-1.1 0-1.4.3 0 .1.2.3.2.3zm-.3.2.3-.2-.2-.2-.3.2.2.2zm-.8.8c.2-.3.5-.6.8-.8l-.2-.2c-.3.3-.6.6-.8.9l.2.1zm-1.6 1.6c.6-.5 1.1-1 1.6-1.5l-.2-.3c-.5.5-1 1-1.6 1.5l.2.3zm-.9.1c.3 0 .6 0 .8-.1l-.1-.3c-.2.1-.4.1-.7.1v.3zm-.3.3.5-.3-.2-.2-.5.3.2.2zm-10.2-4.9c3.8.3 7.4 2.1 10 4.8l.2-.2c-2.7-2.8-6.3-4.6-10.2-4.9v.3zm-.2-.5v.4h.3v-.4H58zm0 0h.3-.3zm0 0h.3-.3zm0 0h.3-.3zm0 0h.3-.3zm0 0h.3-.3zm0-.2v.1h.3v-.1H58zm-.4-.5c.1.3.2.5.5.7l.2-.2c-.2-.1-.3-.3-.3-.5h-.4zm.1-2.3c-.1.7-.2 1.5-.1 2.2h.3c0-.7 0-1.5.1-2.2h-.3zm.2-1.2c0 .4-.1.8-.2 1.1l.3.1c.1-.4.1-.8.2-1.2 0 .1-.3 0-.3 0zm0-.3v.4h.3v-.4h-.3zm-1.1-1.2c.6 0 1.1.6 1.1 1.2h.3c0-.8-.6-1.5-1.3-1.5l-.1.3zm0 0 .2-.3c-.1 0-.2.3-.2.3zm-1.7 15.7.4-6.4h-.3l-.4 6.4h.3zm-.2.1v-.3.3zm-.5.9c.4-.2.7-.6.7-1h-.3c0 .3-.2.6-.5.8l.1.2zm-1.3-.1c.4.3.8.3 1.3.1l-.1-.3c-.3.2-.7.1-.9-.1l-.3.3zm-5.2-3.7 5.2 3.7.2-.2-5.2-3.7-.2.2zm6.1-3.6c-2.3.5-4.4 1.7-6.1 3.3l.2.2c1.6-1.6 3.7-2.7 6-3.2l-.1-.3zm1.3-.2c-.4 0-.9.1-1.3.2l.1.3c.4-.1.8-.2 1.3-.2l-.1-.3zm0 0v.3-.3zm3.1.3c2.7.3 5.3 1.6 7.2 3.5l.2-.2c-2-2-4.6-3.2-7.4-3.6v.3zm.5 6.2-.4-6.4h-.3l.4 6.4h.3zm.5.9c-.3-.2-.5-.5-.5-.8h-.3c0 .5.3.9.7 1.1l.1-.3zm1-.1c-.3.2-.7.3-1 .1l-.1.3c.4.2.9.1 1.3-.2l-.2-.2zm5.2-3.7-5.2 3.7.2.2 5.2-3.7-.2-.2zm-19.4 2.4-.2.2.2-.2zm-1.7 8c-.3-2.7.3-5.5 1.8-7.8l-.3-.2c-1.5 2.4-2.1 5.2-1.8 8h.3zm5.9-1.9-6.1 1.8.1.3 6.1-1.8-.1-.3zm-.1.1h.3-.3zm.8-.8c-.1.3-.3.6-.7.7l.1.3c.4-.1.8-.5.9-.9l-.3-.1zm-.3-.9c.3.2.4.6.3.9l.3.1c.1-.4 0-.9-.4-1.2l-.2.2zm-.1-.1h.3-.3zM46 76.7l4.8 4.3.2-.2-4.8-4.3-.2.2zm0-.2.3.2-.3-.2zm.2.2-.2-.2.2.2zm21.2 0c1.4 2.3 2.1 5.1 1.8 7.8h.3c.3-2.8-.4-5.6-1.9-8 .1 0-.2.2-.2.2zm.3-.2-.3.1.3-.1zM62.9 81l4.8-4.3-.2-.2-4.8 4.3.2.2zm-.3.9c-.1-.3 0-.7.3-.9l-.2-.2c-.3.3-.5.8-.4 1.2l.3-.1zm.7.6c-.3-.1-.6-.4-.7-.7l-.3.1c.1.4.4.8.9.9l.1-.3zm.1.2h-.3.3zm6 1.6-6.2-1.8-.1.3 6.2 1.8.1-.3zM57.8 81h-2v.3h2V81zm1.3 1.6-1.2-1.5-.2.2 1.2 1.5.2-.2zm-.4 2 .4-1.9-.3-.1-.4 1.9.3.1zm-1.8 1 1.8-.8-.1-.3-1.8.8.1.3zm-1.9-.9 1.8.8.1-.3-1.8-.8-.1.3zm-.5-2 .4 1.9.3-.1-.4-1.9-.3.1zm1.2-1.6-1.2 1.5.2.2 1.2-1.5c.1 0-.2-.2-.2-.2zm6.5 5.4h.2v-.3h-.3l.1.3zm.1-.1-.3-.1.3.1zm-.9.6c.2-.3.4-.4.7-.4v-.3c-.4 0-.8.2-1 .6l.3.1zm-.1.8c-.1-.3-.1-.6.1-.9l-.3-.2c-.2.3-.2.8-.1 1.1.1.2.3 0 .3 0zm2.5 6-2.4-5.9-.3.1 2.4 5.9.3-.1zm4.8-6.4c-.9 2.6-2.7 4.8-5 6.3l.2.3c2.4-1.5 4.2-3.8 5.1-6.5l-.3-.1zm-6.2-.9 6.3 1.1.1-.3-6.3-1.1-.1.3zm-9.9.3c-.2-.3-.6-.6-1-.6v.3c.3 0 .6.2.8.4l.2-.1zm.1 1.2c.2-.4.1-.8-.1-1.1l-.2.1c.2.3.2.6.1.9-.1-.1.2.1.2.1zm0-.1h-.3.3zm-2.4 6 2.4-5.9-.3-.1-2.4 5.9c0-.1.3.1.3.1zm-5.4-6.4c1 2.6 2.7 4.9 5.1 6.4l.2-.3c-2.3-1.5-4.1-3.7-5-6.2l-.3.1zm6.4-1.2-6.2 1v.3l6.3-1.1c0 .1-.1-.2-.1-.2zm.3 0h-.2v.3h.2v-.3zm-.1 0 .2.2-.2-.2zm5.4 2.8c.4 0 .7.2.8.5l.3-.1c-.2-.4-.7-.7-1.1-.6v.2zm.2-.2-.3.1c0 .1.3-.1.3-.1zm-1 .7c.2-.3.5-.5.8-.5v-.3c-.4 0-.8.2-1 .6l.2.2zm-3.1 5.6 3.1-5.6-.3-.1-3 5.5.2.2zm6.7.1c-2.3.5-4.6.4-6.8-.4l-.1.3c2.2.8 4.6.9 7 .4l-.1-.3zm1.3-.3-1.2.4.1.3 1.2-.4-.1-.3zm-3.2-5.4 3.1 5.6.2-.2-3.1-5.6-.2.2zm.1.1v-.3.3z" style="fill:#fff"/></svg>