<svg version="1.1" id="Layer_1" xmlns="http://www.w3.org/2000/svg" x="0" y="0"
	viewBox="0 0 464.5 175.7" style="enable-background:new 0 0 464.5 175.7" xml:space="preserve"><style>.st0{fill:#326ce5}</style><g id="g76" transform="matrix(.35278 0 0 -.35278 278.706 182.028)"><path id="path78" class="st0" d="M-412.6 281.2c-9.6 0-17.4-7.8-17.4-17.4 0-9.6 7.8-17.4 17.4-17.4s17.4 7.8 17.4 17.4c0 9.6-7.8 17.4-17.4 17.4"/></g><g id="g80" transform="matrix(.35278 0 0 -.35278 278.706 185.147)"><path id="path82" class="st0" d="M-412.6 233.5c-13.9 0-26 7.2-33 18.1-5.7-13.7-11.3-29.4-15.5-41.4-15.7-44.1-26.7-72.7-41-82.5-7.4-7.6-17.5-11.8-28-11.8-21.6 0-39.2 17.5-39.2 39.2 0 13.9 7.2 26 18.1 33-13.7 5.7-29.4 11.3-41.4 15.5-44.1 15.7-72.7 26.7-82.5 41-7.6 7.4-11.8 17.5-11.8 28 0 21.6 17.5 39.2 39.2 39.2 13.9 0 26-7.2 33-18.1 5.7 13.7 11.3 29.4 15.5 41.4 15.7 44.1 26.7 72.7 41 82.5 7.1 7.3 17 11.8 28 11.8 21.6 0 39.2-17.5 39.2-39.2 0-13.9-7.2-26-18.1-33 13.7-5.7 29.4-11.3 41.4-15.5 44.1-15.7 72.7-26.7 82.5-41 7.3-7.1 11.8-17 11.8-28 0-21.7-17.6-39.2-39.2-39.2m-93 266c-9.3 9.3-24.3 9.3-33.5 0l-210.1-210.1c-9.3-9.2-9.3-24.2 0-33.5l210.1-210.1c9.3-9.3 24.3-9.3 33.5 0l210.1 210.1c9.3 9.3 9.3 24.3 0 33.5l-210.1 210.1z"/></g><g id="g84" transform="matrix(.35278 0 0 -.35278 265.75 182.028)"><path id="path86" class="st0" d="M-611.1 281.2c-9.6 0-17.4-7.8-17.4-17.4 0-9.6 7.8-17.4 17.4-17.4 9.6 0 17.4 7.8 17.4 17.4.1 9.6-7.7 17.4-17.4 17.4"/></g><g id="g88" transform="matrix(.35278 0 0 -.35278 272.228 188.507)"><path id="path90" class="st0" d="M-511.8 182c-9.6 0-17.4-7.8-17.4-17.4 0-9.6 7.8-17.4 17.4-17.4 9.6 0 17.4 7.8 17.4 17.4 0 9.6-7.8 17.4-17.4 17.4"/></g><g id="g92" transform="matrix(.35278 0 0 -.35278 270.72 178.053)"><path id="path94" class="st0" d="M-534.9 342.1c-2.1 2.1-4 4.4-5.6 6.9-5.7-13.7-11.3-29.4-15.5-41.4-15.7-44.1-26.7-72.7-41-82.5-2.1-2.1-4.4-4-6.9-5.6 13.7-5.7 29.4-11.3 41.4-15.5 44.1-15.7 72.7-26.7 82.5-41 2.1-2.1 4-4.4 5.6-6.9 5.7 13.7 11.3 29.4 15.5 41.4 15.7 44.1 26.7 72.7 41 82.5 2.1 2.1 4.4 4 6.9 5.6-13.7 5.7-29.4 11.3-41.4 15.5-44.1 15.7-72.8 26.6-82.5 41"/></g><g id="g96" transform="matrix(.35278 0 0 -.35278 272.228 177.469)"><path id="path98" class="st0" d="M-511.8 351c9.6 0 17.4 7.8 17.4 17.4 0 9.6-7.8 17.4-17.4 17.4-9.6 0-17.4-7.8-17.4-17.4 0-9.5 7.7-17.4 17.4-17.4"/></g><g id="g100" transform="matrix(.35278 0 0 -.35278 252.894 206.934)"><path id="path102" class="st0" d="M-144 277.8c-1.2 1.2-2 2.7-2.5 4.7-.5 1.9-.8 4.4-.8 7.4v121.7l-18.1-3.1V287c0-9.6 2.3-16.7 7-21.2s12.6-7 23.8-7.2l2.5 15.2c-2.9.4-5.3.9-7.2 1.5-2 .5-3.5 1.4-4.7 2.5"/></g><g id="g104" transform="matrix(.35278 0 0 -.35278 255.416 204.563)"><path id="path106" class="st0" d="M-105.4 314.2c.4 3.5 1.2 7 2.4 10.3 1.2 3.4 3 6.3 5.2 9 2.2 2.6 4.9 4.7 8.1 6.3 3.2 1.6 6.9 2.4 11 2.4 7.4 0 13.2-2.6 17.4-7.9 4.2-5.3 6.3-12 6.1-20.2l-50.2.1zm26.9 43.4c-5.8 0-11.5-1.1-17.1-3.3s-10.5-5.5-14.8-9.9c-4.3-4.4-7.7-10-10.3-16.7-2.6-6.7-3.9-14.5-3.9-23.5 0-7.7 1-14.7 3-21.1s5.1-12 9.3-16.6c4.2-4.7 9.4-8.3 15.9-11 6.4-2.7 14.1-4 22.9-4 7 0 13.3.6 18.8 1.9 5.5 1.3 9.4 2.5 11.6 3.7l-2.5 15.2c-2.2-1-5.5-2.1-9.8-3.2-4.3-1.1-9.7-1.7-16.1-1.7-11.3 0-19.6 2.7-24.9 8.2-5.3 5.4-8.4 13.4-9.1 23.9h69.3c.1 1 .2 2.2.2 3.4v3c0 17.4-3.6 30.3-10.9 38.8-7.5 8.6-18 12.9-31.6 12.9"/></g><g id="g108" transform="matrix(.35278 0 0 -.35278 263.634 207.095)"><path id="path110" class="st0" d="M20.4 275.4c-2.2-.5-5-.9-8.3-1.1s-7-.3-11.3-.3c-7.1 0-12.8 1.3-16.9 3.8-4.2 2.5-6.2 7-6.2 13.5 0 3.5.9 6.3 2.5 8.5 1.7 2.1 3.8 3.8 6.3 5.1 2.5 1.2 5.3 2.1 8.4 2.4 3 .4 5.9.6 8.7.6 4.2 0 7.7-.2 10.6-.7 2.9-.5 5-1 6.3-1.7l-.1-30.1zm9.3 78.6c-3.1 3.4-7.1 6.1-12.1 8-5 1.9-11.1 2.8-18.4 2.8-6.4 0-12.3-.5-17.7-1.5-5.4-1-9.3-2-11.7-3l2.1-15c2.2.9 5.5 1.8 10 2.6s9.7 1.3 15.7 1.3c4.7 0 8.5-.7 11.4-2.1 2.9-1.4 5.2-3.2 6.9-5.5 1.7-2.3 2.9-4.9 3.5-7.8.6-2.9 1-5.9 1-8.9V320c-.5.1-1.4.3-2.7.6-1.3.3-2.8.6-4.6.9-1.8.3-3.6.6-5.5.8-1.9.2-3.8.3-5.7.3-5.7 0-11.2-.6-16.4-1.8s-9.7-3-13.6-5.5c-3.9-2.5-7-5.7-9.3-9.7-2.3-4-3.4-8.8-3.4-14.4 0-5.8 1-10.9 2.9-15s4.7-7.5 8.2-10c3.5-2.5 7.7-4.4 12.5-5.5 4.8-1.2 10.1-1.8 15.8-1.8 4 0 8.1.2 12.2.5s7.9.7 11.4 1.1c3.5.4 6.6.8 9.4 1.3 2.8.5 5 .8 6.5 1.1V326c0 5.7-.6 10.9-1.9 15.7-1.3 4.7-3.4 8.8-6.5 12.3"/></g><g id="g112" transform="matrix(.35278 0 0 -.35278 268.945 202.25)"><path id="path114" class="st0" d="M101.8 349.6c-1.9.3-3.9.6-5.9.8-2 .2-3.8.3-5.4.3-7.9 0-15.1-.7-21.4-2.1-6.4-1.4-11.7-2.8-16-4.4v-97h18.1v85.1c1 .3 3.2.7 6.5 1.5 3.3.7 6.6 1.1 10 1.1 5.2 0 9.4-.4 12.7-1.1 3.3-.7 5.7-1.3 7.1-1.8l3.1 15.8c-.8.3-2 .6-3.6.9-1.5.2-3.3.5-5.2.9"/></g><g id="g116" transform="matrix(.35278 0 0 -.35278 274.433 202.905)"><path id="path118" class="st0" d="M185.8 339.5c-3.2 4.1-7.4 7.3-12.7 9.5-5.3 2.3-12 3.4-20 3.4-9 0-16.9-.6-23.8-1.8-6.9-1.2-12.4-2.3-16.6-3.3V249h18.1v85.5c.6.1 1.7.3 3.2.6 1.5.3 3.2.5 5.1.7 1.9.2 3.9.3 5.9.5 2.1.1 4.1.2 6 .2 4.8 0 8.8-.6 12.1-1.8 3.3-1.2 5.8-3.2 7.8-5.9 1.9-2.7 3.3-6.3 4.2-10.7.9-4.4 1.3-9.7 1.3-16v-53h18.1V306c0 6.9-.6 13.2-1.9 18.9-1.4 5.6-3.6 10.6-6.8 14.6"/></g><g id="g120" transform="matrix(.35278 0 0 -.35278 280.768 206.244)"><path id="path122" class="st0" d="M282.8 288.4c-3.9 5.2-7.9 10.2-12.1 15.1-4.2 4.9-8.2 9.1-12.1 12.6 7.8 7.7 15 15.1 21.5 22.2 6.6 7.2 13.3 14.7 20.2 22.6h-34.5c-1.8-2.2-4-4.8-6.5-7.7-2.5-3-5.2-6.1-8.1-9.4-2.9-3.3-5.8-6.6-8.9-10-3-3.4-6-6.6-8.9-9.7v85.5l-29-4.7V258.6h29v44.9c3.2-2.6 6.5-5.8 9.8-9.6 3.3-3.8 6.5-7.7 9.4-11.8s5.8-8.2 8.5-12.3c2.7-4.1 5-7.8 7.1-11.2h33.4c-2.2 4.3-4.9 9-8.2 14.2-3.1 5.2-6.7 10.4-10.6 15.6"/></g><g id="g124" transform="matrix(.35278 0 0 -.35278 285.779 206.482)"><path id="path126" class="st0" d="M359.5 284.8c-3.1-3.3-8.1-4.9-14.8-4.9-3.5 0-6.5.5-9 1.6-2.5 1-4.5 2.3-6 3.9s-2.7 3.3-3.4 5.2-1.1 3.6-1.1 5.2c0 5.1 1.2 9.4 3.7 13.1 2.5 3.7 5.5 6.8 9.1 9.6 3.6-1.2 7-2.4 10.2-3.8 3.2-1.4 5.9-2.9 8.3-4.7 2.3-1.8 4.2-3.8 5.5-6.2s2.1-5 2.1-8c.1-4.1-1.4-7.8-4.6-11m-30.3 79.4c.6 1.7 1.7 3.3 3 4.7 1.4 1.5 3.1 2.7 5.2 3.6 2.1.9 4.5 1.4 7.4 1.4 3 0 5.5-.5 7.6-1.5 2.1-1 3.8-2.2 5.2-3.6 1.4-1.4 2.3-2.9 2.9-4.6.6-1.6.9-3.1.9-4.6 0-4.9-1.1-9.1-3.3-12.4-2.2-3.4-5.4-6.3-9.5-8.9-7.4 2.6-12.6 5.7-15.7 9.3-3 3.6-4.6 7.5-4.6 11.7-.1 1.6.2 3.2.9 4.9m42.8-33.8c4.9 3.1 9.1 7.4 12.4 12.7 3.3 5.4 5 11.2 5 17.4 0 4.3-.8 8.6-2.4 12.9-1.6 4.3-4.3 8.3-7.9 11.8-3.6 3.5-8.3 6.4-13.9 8.7-5.7 2.3-12.4 3.4-20.3 3.4-6.7 0-12.9-1.1-18.4-3.2-5.5-2.1-10.2-5-14.1-8.6-3.8-3.5-6.9-7.8-9.1-12.5-2.1-4.8-3.2-9.8-3.2-15 0-6.9 1.3-12.5 4-16.9 2.7-4.4 6.8-8.9 12.4-13.4-2.6-1.9-5-4-7.3-6.2s-4.3-4.6-6.1-7.3c-1.8-2.7-3.3-5.6-4.3-8.9-1-3.3-1.5-6.8-1.5-10.7 0-3.8.8-7.9 2.3-12.4 1.5-4.5 4.2-8.6 7.9-12.4 3.7-3.8 8.6-6.9 14.6-9.5 6-2.5 13.6-3.8 22.7-3.8 7.9 0 14.9 1 20.9 3 6 2 11.1 4.9 15.1 8.5 4 3.6 7 7.9 9.1 12.8 2 4.9 3 10.2 3 16.1 0 7-1.6 13.1-4.8 18.4-3.4 5.3-8.7 10.3-16.1 15.1"/></g><g id="g128" transform="matrix(.35278 0 0 -.35278 292.694 205.727)"><path id="path130" class="st0" d="M465.4 296.3c-1 3.3-2.7 6.2-5.1 8.9-2.4 2.6-5.7 5.1-9.8 7.4s-9.4 4.6-15.8 7c-3.1 1.2-5.7 2.3-7.7 3.3s-3.6 1.9-4.8 2.7c-1.2.8-1.9 1.7-2.3 2.6-.4.9-.6 1.9-.6 3.1 0 5.1 4.5 7.6 13.6 7.6 4.9 0 9.4-.5 13.3-1.4s7.6-1.9 11-3.1l5.1 22.6c-3.4 1.3-7.9 2.5-13.6 3.6-5.7 1.1-11.7 1.7-17.9 1.7-12.5 0-22.3-2.8-29.4-8.4-7.1-5.6-10.7-13.2-10.7-22.8 0-4.9.7-9.1 2.1-12.7 1.4-3.4 3.4-6.5 6-9.1 2.6-2.5 5.8-4.7 9.4-6.5 3.7-1.8 7.8-3.6 12.4-5.3 5.8-2.2 10.2-4.2 13-5.9 2.9-1.8 4.3-3.8 4.3-6.1 0-3-1.1-5-3.3-6.1-2.2-1-6-1.5-11.3-1.5-5.1 0-10.2.6-15.4 1.7-5.2 1.1-10.3 2.6-15.2 4.6l-4.9-23.6c2.3-1 6.5-2.3 12.6-3.9 6-1.6 13.6-2.3 22.7-2.3 13.9 0 24.6 2.6 32.2 7.8 7.6 5.2 11.4 12.8 11.4 22.9.2 4.2-.3 8-1.3 11.2"/></g></svg>