<?xml version="1.0" encoding="UTF-8"?>
<svg xmlns="http://www.w3.org/2000/svg" viewBox="0 0 901.27 275.78">
    <defs>
        <style>.cls-1{fill:#222;}.cls-2{fill:#db0032;}</style>
    </defs>
    <g id="Capa_2" data-name="Capa 2">
        <g id="Capa_1-2" data-name="Capa 1">
            <path class="cls-1"
                d="M65.72,172.76C67.13,202.44,85.5,212,113.41,212c19.79,0,40.28-7.07,40.28-25.79,0-22.26-36-26.5-72.43-36.74C45.22,139.2,7.42,123,7.42,76.67,7.42,21.55,62.89,0,110.23,0,160.4,0,210.92,24.38,211.28,81.26H145.56c1.06-23-20.49-30.39-40.63-30.39-14.13,0-31.8,5-31.8,21.56,0,19.43,36.39,23,73.14,33.21,36.39,10.24,73.13,27.2,73.13,72.78,0,64-54.41,84.44-109.88,84.44C51.58,262.86.35,237.42,0,172.76Z"></path>
            <path class="cls-1"
                d="M240.09,5.3H348.56c77.37,0,123.65,47,123.65,125.07,0,82.67-47,127.18-123.65,127.18H240.09ZM305.81,201H336.9c49.82-1.06,69.6-20.49,69.6-71,0-45.92-24.73-68.18-69.6-68.18H305.81Z"></path>
            <path class="cls-1" d="M495.05,84h60.07V257.55H495.05Z"></path>
            <path class="cls-2"
                d="M558.21,35.45A33.13,33.13,0,1,1,525.08,2.32,33.13,33.13,0,0,1,558.21,35.45Z"></path>
            <path class="cls-1"
                d="M610.93,84h30.58c18.36,0,32.16,11.52,32.16,35.05,0,20.54-10.52,35.83-32.16,35.83H610.93Zm15.59,57.78h13.9c9,0,17.67-5.56,17.67-21.25,0-14.29-5-23.42-20.45-23.42H626.52Z"></path>
            <path class="cls-1"
                d="M681.41,103.55H695.5v51.32H681.41ZM695.75,89.8a7.3,7.3,0,1,1-7.3-7.3A7.3,7.3,0,0,1,695.75,89.8Z"></path>
            <path class="cls-1"
                d="M754,151.6c0,8.43-3,22.73-26.6,22.73-10.13,0-21.94-4.77-22.64-16.48h14c1.29,5.26,5.56,7.05,10.52,7.05,7.84,0,11.42-5.36,11.32-12.71v-6.75h-.2c-3.08,5.36-9.23,7.94-15.39,7.94-15.38,0-21.94-11.71-21.94-25.81,0-13.3,7.65-25.41,22-25.41,6.75,0,11.92,2.28,15.29,8.24h.2v-6.85H754Zm-13.4-23c0-8.34-2.88-15.79-12-15.79-7.94,0-11.42,7-11.42,14.59,0,7.35,2.78,15.39,11.42,15.39C736.6,142.76,740.57,135.91,740.57,128.57Z"></path>
            <path class="cls-1"
                d="M763.69,103.55h14.1v51.32h-14.1ZM778,89.8a7.3,7.3,0,1,1-7.3-7.3A7.3,7.3,0,0,1,778,89.8Z"></path>
            <path class="cls-1"
                d="M804.79,103.55h10.32V113H804.79v25.41c0,4.77,1.19,6,6,6a21.54,21.54,0,0,0,4.37-.4v11a53.66,53.66,0,0,1-8.24.5c-8.63,0-16.18-2-16.18-12.21V113h-8.54v-9.43h8.54V88.16h14.1Z"></path>
            <path class="cls-1"
                d="M819.27,119.33c.8-13.2,12.61-17.17,24.13-17.17,10.22,0,22.53,2.28,22.53,14.59v26.71c0,4.66.5,9.33,1.79,11.41H853.43a20.8,20.8,0,0,1-1-5c-4.46,4.66-11,6.35-17.27,6.35-9.73,0-17.47-4.86-17.47-15.38,0-11.62,8.73-14.4,17.47-15.59s16.68-1,16.68-6.75c0-6.06-4.17-7-9.14-7-5.36,0-8.83,2.18-9.33,7.74Zm32.57,10.43c-2.38,2.08-7.35,2.18-11.72,3s-8.34,2.39-8.34,7.55,4.07,6.55,8.64,6.55c11,0,11.42-8.73,11.42-11.81Z"></path>
            <path class="cls-1" d="M875.26,84h14.09v70.88H875.26Z"></path>
            <path class="cls-1"
                d="M662.16,249.67a24,24,0,0,1-19.46,9.73c-21.94,0-34.85-16.38-34.85-36.83,0-21,12.91-37.43,34.85-37.43,14.49,0,28.19,8.94,29.88,25H657.69c-1.79-7.84-7.64-11.91-15-11.91-14,0-19.26,11.91-19.26,24.32,0,11.81,5.26,23.72,19.26,23.72,10.12,0,16-5.46,16.88-15.29H643.89V219.39h29.78v38.32h-9.93Z"></path>
            <path class="cls-1"
                d="M686.77,206.39h13.4v9.53h.2A18.12,18.12,0,0,1,716.75,205a10.38,10.38,0,0,1,3.07.49V218.6a25.49,25.49,0,0,0-5.06-.5c-10.32,0-13.9,7.44-13.9,16.48v23.13H686.77Z"></path>
            <path class="cls-1"
                d="M752.48,205c16.18,0,26.6,10.72,26.6,27.1s-10.42,27-26.6,27S726,248.38,726,232.1,736.39,205,752.48,205Zm0,43.48c9.63,0,12.51-8.24,12.51-16.38s-2.88-16.48-12.51-16.48-12.41,8.24-12.41,16.48S743,248.48,752.48,248.48Z"></path>
            <path class="cls-1"
                d="M836.35,257.71H823v-7.15h-.3A18.3,18.3,0,0,1,807,259.1c-15,0-18.76-8.44-18.76-21.15V206.39H802.3v29c0,8.44,2.48,12.61,9,12.61,7.64,0,10.92-4.27,10.92-14.69v-26.9h14.09Z"></path>
            <path class="cls-1"
                d="M849.05,206.39h13.4v6.55h.2c3.38-5.46,8.94-7.94,15.29-7.94,16.08,0,23.33,13,23.33,27.59,0,13.7-7.55,26.51-22.54,26.51a18.21,18.21,0,0,1-15.38-7.74h-.2v24.42h-14.1Zm38.12,25.81c0-8.14-3.27-16.58-12.31-16.58-9.23,0-12.21,8.24-12.21,16.58s3.18,16.28,12.31,16.28S887.17,240.54,887.17,232.2Z"></path>
        </g>
    </g>
</svg>