<svg version="1.1" id="Layer_1" xmlns="http://www.w3.org/2000/svg" x="0" y="0" viewBox="0 0 906 220"
    style="enable-background:new 0 0 906 220" xml:space="preserve"><style>.st0{fill:#fff}</style><path class="st0" d="M188.98 110c0 17.05-.02 34.11.03 51.16 0 1.42-.4 2.2-1.66 2.92a49817.39 49817.39 0 0 0-90.02 51.46c-1 .57-1.73.68-2.81.06-30.03-17.22-60.09-34.39-90.16-51.54-1.13-.64-1.47-1.36-1.46-2.61.04-21.88.03-43.77.03-65.65-.02-12.41-.04-24.83-.09-37.24-.01-1.31.44-2.07 1.62-2.74 29.96-17.08 59.9-34.2 89.82-51.35a3.2 3.2 0 0 1 3.17 0c29.87 17.11 59.76 34.19 89.67 51.21 1.45.83 1.91 1.72 1.9 3.36-.06 16.01-.04 32.02-.03 48.03V110h-.01zM20.74 77.29c-.06.6-.1.85-.1 1.1 0 24.4.01 48.79-.04 73.19 0 1.27.65 1.68 1.52 2.18 21.05 11.99 42.09 23.99 63.14 35.99.47.27.97.47 1.64.79 0-6.32-.05-12.34.04-18.35.02-1.44-.45-2.19-1.69-2.89-14.83-8.41-29.62-16.91-44.46-25.29-1.62-.92-2.22-1.87-2.21-3.77.09-17 .06-34.01.02-51.01 0-.73-.27-1.83-.78-2.14-5.57-3.29-11.2-6.45-17.08-9.8zm8.87-15.45c5.61 3.23 11.07 6.31 16.46 9.5 1.12.66 1.91.6 3-.03 14.99-8.64 30.02-17.21 45-25.87 1.31-.76 2.21-.75 3.52 0 15 8.63 30.03 17.19 45.08 25.74.6.34 1.6.68 2.08.42 5.75-3.16 11.44-6.43 17.23-9.72-.31-.22-.46-.35-.63-.44-21.45-12.24-42.89-24.48-64.37-36.66-.62-.35-1.78-.3-2.42.05-5.55 3.06-11.03 6.24-16.53 9.37-16.05 9.18-32.11 18.34-48.42 27.64zm75.19 128.72c.91-.45 1.49-.71 2.04-1.03 20.81-11.87 41.61-23.76 62.45-35.58 1.32-.75 1.75-1.55 1.75-3.04-.05-23.8-.04-47.6-.04-71.4v-2.22c-5.57 3.18-10.79 6.23-16.1 9.13-1.36.74-1.73 1.6-1.73 3.07.05 16.8-.01 33.6.09 50.4a4.82 4.82 0 0 1-2.46 4.23c-14.8 8.32-29.54 16.75-44.27 25.2-.7.4-1.64 1.21-1.66 1.84-.12 6.34-.07 12.67-.07 19.4zm-39.09-53.12c.15.19.2.31.29.37 9.64 5.51 19.27 11.03 28.93 16.5.46.26 1.3.29 1.75.04 9.78-5.52 19.52-11.1 29.41-16.74-.47-.34-.8-.64-1.17-.86-9.3-5.31-18.61-10.6-27.89-15.95-.95-.55-1.59-.44-2.46.07-9.11 5.24-18.25 10.44-27.38 15.66-.51.26-.98.59-1.48.91zm-9.13-15.47c.55-.24.91-.36 1.23-.54 9.35-5.33 18.71-10.64 28.02-16.05.59-.34 1.03-1.44 1.03-2.19.07-10.45.05-20.91.04-31.36 0-.48-.06-.96-.1-1.59-.72.37-1.24.62-1.74.9-9.01 5.14-18 10.32-27.04 15.4-1.21.68-1.56 1.47-1.56 2.78.05 10.19.02 20.38.03 30.57 0 .64.05 1.27.09 2.08zm48.37-51.76c-.08.59-.17.96-.17 1.32-.01 10.66-.04 21.32.06 31.98.01.73.79 1.74 1.49 2.14 7.11 4.15 14.27 8.2 21.41 12.27 2.41 1.38 4.82 2.75 7.33 4.18.06-.43.11-.62.11-.8.01-10.86.03-21.71-.05-32.57-.01-.69-.69-1.64-1.33-2.01-6.88-4.02-13.81-7.95-20.73-11.89-2.65-1.51-5.3-3.02-8.12-4.62zM220.77 152V65.53h24.09V152h-24.09zm21.74-19.14-1.36-27.42 37.18-39.9h26.81l-36.81 40.15-13.71 14.21-12.11 12.96zm36.2 19.14-28.17-35.7 15.94-17.05L307.12 152h-28.41zM353.57 153.73c-12.77 0-22.71-3.5-29.83-10.5-7.12-7-10.69-16.88-10.69-29.65V65.53h24.46v47.31c0 7.33 1.44 12.6 4.32 15.81 2.88 3.21 6.88 4.82 11.98 4.82 5.11 0 9.08-1.61 11.92-4.82s4.26-8.48 4.26-15.81V65.53h24.21v48.06c0 12.77-3.6 22.65-10.81 29.65-7.19 6.99-17.14 10.49-29.82 10.49zM410.89 152V65.53h43.98c11.45 0 19.97 2.1 25.57 6.3 5.6 4.2 8.4 9.64 8.4 16.31 0 4.45-1.15 8.36-3.46 11.74-2.31 3.38-5.6 6.01-9.88 7.91-4.28 1.9-9.31 2.84-15.07 2.84l2.35-5.93c6.01 0 11.3.93 15.87 2.78 4.57 1.85 8.11 4.55 10.62 8.09s3.77 7.78 3.77 12.72c0 7.41-3.03 13.22-9.08 17.42s-14.93 6.3-26.62 6.3h-46.45zm24.09-17.66h20.51c4.28 0 7.49-.72 9.64-2.16 2.14-1.44 3.21-3.64 3.21-6.61s-1.07-5.17-3.21-6.61c-2.14-1.44-5.35-2.16-9.64-2.16h-22.24V99.87h18.53c4.12 0 7.21-.7 9.27-2.1 2.06-1.4 3.09-3.46 3.09-6.18 0-2.88-1.03-5-3.09-6.36-2.06-1.36-5.15-2.04-9.27-2.04h-16.8v51.15zM529.85 132.98h45.21V152h-69.3V65.53h67.7v19.02h-43.61v48.43zm-1.73-33.97h40.15v18.16h-40.15V99.01zM613.24 152h-24.46V65.53h67.7v19.02h-43.24V152zm-1.85-48.54h39.9v18.9h-39.9v-18.9zM692.06 132.98h45.21V152h-69.3V65.53h67.7v19.02h-43.61v48.43zm-1.73-33.97h40.15v18.16h-40.15V99.01zM781.25 153.73c-7.17 0-14.02-.89-20.57-2.66-6.55-1.77-11.84-4.01-15.87-6.73l8.03-18.16c3.87 2.47 8.34 4.51 13.4 6.12 5.07 1.61 10.11 2.41 15.13 2.41 3.46 0 6.2-.29 8.21-.87 2.02-.58 3.5-1.4 4.45-2.47.95-1.07 1.42-2.35 1.42-3.83 0-1.89-.91-3.4-2.72-4.51-1.81-1.11-4.18-2.06-7.1-2.84-2.92-.78-6.1-1.52-9.51-2.22-3.42-.7-6.9-1.62-10.44-2.78-3.54-1.15-6.75-2.68-9.64-4.57-2.88-1.89-5.21-4.36-6.98-7.41-1.77-3.05-2.66-6.88-2.66-11.49 0-5.11 1.4-9.76 4.2-13.96 2.8-4.2 7.04-7.58 12.72-10.13 5.68-2.55 12.76-3.83 21.25-3.83 5.68 0 11.26.64 16.74 1.92 5.48 1.28 10.31 3.19 14.51 5.74l-7.41 18.04c-4.12-2.3-8.2-3.99-12.23-5.06-4.04-1.07-7.95-1.61-11.74-1.61-3.38 0-6.1.37-8.15 1.11-2.06.74-3.54 1.69-4.45 2.84-.91 1.15-1.36 2.39-1.36 3.71 0 1.98.91 3.52 2.72 4.63 1.81 1.11 4.16 2.02 7.04 2.72 2.88.7 6.07 1.42 9.57 2.16 3.5.74 6.98 1.67 10.44 2.78 3.46 1.11 6.65 2.59 9.57 4.45 2.92 1.85 5.29 4.28 7.1 7.29 1.81 3.01 2.72 6.78 2.72 11.3 0 5.02-1.42 9.66-4.26 13.9s-7.1 7.64-12.79 10.19c-5.65 2.55-12.78 3.82-21.34 3.82zM849.19 152V84.92h-26.56v-19.4h77.46v19.4h-26.44V152h-24.46z"/></svg>